<svg xmlns="http://www.w3.org/2000/svg" xmlns:xlink="http://www.w3.org/1999/xlink" width="322.32" height="250.06" viewBox="0 0 322.32 250.06"><defs><linearGradient id="未命名的渐变_3" x1="602.57" y1="1066.28" x2="717.05" y2="867.98" gradientTransform="matrix(1, 0, 0, -1, -422, 1133.78)" gradientUnits="userSpaceOnUse"><stop offset="0" stop-color="#efff9d" stop-opacity="0.85"/><stop offset="1" stop-color="#7cf6fc" stop-opacity="0.85"/></linearGradient></defs><g id="图层_2" data-name="图层 2"><g id="图层_1-2" data-name="图层 1"><path d="M23.6,0H241.21a23.59,23.59,0,0,1,23.6,23.59V158a23.59,23.59,0,0,1-23.6,23.59H97.11l-48.32,48.3v-48.3H23.6A23.6,23.6,0,0,1,0,158V23.59A23.6,23.6,0,0,1,23.6,0Z" fill="#4be188" fill-rule="evenodd"/><path d="M67.45,84.77a4.4,4.4,0,1,1-4.39,4.4A4.4,4.4,0,0,1,67.45,84.77Zm0-33a4.4,4.4,0,0,1,4.4,4.4V75.93a4.4,4.4,0,1,1-8.79,0V56.16A4.4,4.4,0,0,1,67.45,51.76ZM67.53,40,35.31,95.84H99.75ZM67,26.83l.82,0,.25,0,.08,0h.12a4.54,4.54,0,0,1,1.2.38l.1.09.16.06A4.55,4.55,0,0,1,71,28.54l.14.3.17.16,39.72,68.84a4.46,4.46,0,0,1,.55,1.66l0,.72v.06l-.06.9-.21.42-.07.35-.36.54-.1.21-.1.08-.38.57a4.43,4.43,0,0,1-3.11,1.29H27.74a4.4,4.4,0,0,1-4.4-4.4l.11-.55V99.5l.13-.38.12-.59.16-.24.15-.45L63.71,29l.21-.23.11-.23.39-.35.45-.5.28-.14.18-.16.48-.16.57-.28.33,0Z" fill="#edfff9" fill-rule="evenodd"/><path d="M164,90.69H298.72a23.59,23.59,0,0,1,23.6,23.59v82.43a23.59,23.59,0,0,1-23.6,23.59H276.18v29.76L246.41,220.3H164a23.6,23.6,0,0,1-23.6-23.59V114.28A23.6,23.6,0,0,1,164,90.69Z" fill-rule="evenodd" fill="url(#未命名的渐变_3)"/><path d="M160.18,128a13.14,13.14,0,0,1,13.14-13.15h78.35A13.14,13.14,0,0,1,264.81,128h0a13.14,13.14,0,0,1-13.14,13.15H173.32A13.14,13.14,0,0,1,160.18,128Z" fill="#edfff9" fill-rule="evenodd"/><path d="M161.25,170.37a13.15,13.15,0,0,1,13.15-13.15h42.66a13.14,13.14,0,0,1,13.14,13.15h0a13.14,13.14,0,0,1-13.14,13.15H174.4A13.15,13.15,0,0,1,161.25,170.37Z" fill="#edfff9" fill-rule="evenodd"/></g></g></svg>