<svg id="图层_1" data-name="图层 1" xmlns="http://www.w3.org/2000/svg" xmlns:xlink="http://www.w3.org/1999/xlink" width="1291" height="912" viewBox="0 0 1291 912"><defs><clipPath id="clip-path"><rect width="1291" height="912" fill="none"/></clipPath><linearGradient id="未命名的渐变" x1="2424.67" y1="53.41" x2="2808.19" y2="-610.87" gradientTransform="matrix(1, 0, 0, -1, -1953, -33)" gradientUnits="userSpaceOnUse"><stop offset="0" stop-color="#efff9d" stop-opacity="0.85"/><stop offset="1" stop-color="#7cf6fc" stop-opacity="0.85"/></linearGradient><linearGradient id="未命名的渐变_2" x1="2826.24" y1="-307.85" x2="3179.76" y2="-920.15" gradientTransform="matrix(1, 0, 0, -1, -1953, -33)" gradientUnits="userSpaceOnUse"><stop offset="0" stop-color="#a3f5af"/><stop offset="1" stop-color="#1bffe9"/></linearGradient><linearGradient id="未命名的渐变_3" x1="2973.27" y1="-393.53" x2="2992.24" y2="-445.64" gradientTransform="matrix(1, 0, 0, -1, -1953, -33)" gradientUnits="userSpaceOnUse"><stop offset="0" stop-color="#42b69e"/><stop offset="0.09" stop-color="#42b69e"/><stop offset="0.88" stop-color="#004347"/><stop offset="1" stop-color="#004347"/></linearGradient></defs><g clip-path="url(#clip-path)"><path d="M657.61,0A194.23,194.23,0,0,1,818.9,85.87l8.62,15.91,3.91-1a117,117,0,0,1,135.22,91.64l1.36,13.5h9.08a117.07,117.07,0,0,1,0,234.13H438.91a117.11,117.11,0,0,1-65.37-214.14l6.63-3.6,1.53-4.95a144.6,144.6,0,0,1,89.94-81.65l1.7-.44,5-16.26C507.91,49.05,577,0,657.61,0Z" fill-rule="evenodd" fill="url(#未命名的渐变)"/><path d="M0,488.05ZM252.13,316H317a91.86,91.86,0,0,1,84.61,56.16l4.9,24.28L421.67,398A92,92,0,0,1,495,488.05h0A91.9,91.9,0,0,1,403.16,580H91.84A91.86,91.86,0,0,1,7.22,523.84L0,488.05l7.22-35.79A91.86,91.86,0,0,1,91.84,396.1h70.84l4.83-23.94A91.86,91.86,0,0,1,252.13,316Z" fill="#fff" fill-opacity="0.31" fill-rule="evenodd"/><path d="M809,230.82A31.82,31.82,0,0,1,840.82,199h418.36A31.82,31.82,0,0,1,1291,230.82V880.18A31.82,31.82,0,0,1,1259.18,912H840.82A31.82,31.82,0,0,1,809,880.18Z" fill="#00dec9" fill-rule="evenodd"/><path d="M847,304.49A14.49,14.49,0,0,1,861.49,290h377A14.49,14.49,0,0,1,1253,304.49v553A14.49,14.49,0,0,1,1238.51,872h-377A14.49,14.49,0,0,1,847,857.51Z" fill-rule="evenodd" fill="url(#未命名的渐变_2)"/><path d="M1006,245a16,16,0,0,1,16-16h56a16,16,0,0,1,16,16h0a16,16,0,0,1-16,16h-56A16,16,0,0,1,1006,245Z" fill="#009688" fill-rule="evenodd"/><path d="M879,547.46A22.47,22.47,0,0,1,901.46,525h106.08A22.47,22.47,0,0,1,1030,547.46V693.54A22.47,22.47,0,0,1,1007.54,716H901.46A22.47,22.47,0,0,1,879,693.54Z" fill="#fff" fill-rule="evenodd"/><path d="M1063,541.5a16.5,16.5,0,0,1,16.5-16.5h117a16.5,16.5,0,0,1,16.5,16.5h0a16.5,16.5,0,0,1-16.5,16.5h-117A16.5,16.5,0,0,1,1063,541.5Z" fill="#fff" fill-rule="evenodd"/><path d="M1063,597.5a16.5,16.5,0,0,1,16.5-16.5h80a16.5,16.5,0,0,1,16.5,16.5h0a16.5,16.5,0,0,1-16.5,16.5h-80A16.5,16.5,0,0,1,1063,597.5Z" fill="#fff" fill-rule="evenodd"/><path d="M1024.5,852a17.49,17.49,0,0,1-.84,5.18,8.19,8.19,0,0,1-9,.09c-2.38-1.48-5.38-1.81-7.09.57s-3.55,1.89-1.91-1.68v0c1.64-3.56,5.06-5.76,10.54-2.71C1020.67,855.86,1023.28,853.51,1024.5,852Zm39.34-2c2.62,4,3.27,8-.2,11.55-2,1.63-7.35,1.31-3.92-1.3C1064.78,857.38,1063.08,848.82,1063.84,850Zm-98.15-2.49c1.32,2.66,1.14,11.47-2,9.65-2.54-1.48-3.83-2.95-7.14-.77-5.8,3.83-13.43-1.65-13.39-3.68,4.23-5,9.72-3.84,13.82-1.47h0C960.89,853.48,963.25,850.12,965.69,847.49ZM1125.32,846c3.37.64,6.36,3.7,6,9.35-.36,6.17-5.51,5.79-6,2.72-.58-2.09-2.86-4.63-7.16-5.27l-5,.08,3.7-2.83c3.92-1.59,8.17.2,9.58,2a6,6,0,0,0-4.58-5.9A7.25,7.25,0,0,1,1125.32,846Zm-98-2.87c6.52-.11,10.76,5,12,10.72.47,2.23,1.74,2.91,2.23,1,.72-2.85,4.3-5.93,7.46-5.66.83,5.59-3.14,8.74-6.83,10.05C1032.17,860.83,1027.15,851.86,1027.33,843.13Zm-33.39-.28a6.07,6.07,0,0,1,3.6,1.08c9,6.09,9.29-2.23,15.42-.95,6.38,1.34,5.66,10.21-.1,6.33-1.9-1.27-3.21-2.84-7.29-.15-3.38,2.22-6.29,2-10.47-1.34-3.12-2.47-6.68-1.46-8.68,1.62C987,846.18,990.34,842.93,993.94,842.85Zm-74.34-2.17c.65-.09,1.12.84,1.35,3.32.11,1.19.07,1.78,2.09,2,3.42.38,4.64,1.34-.13,4.06-2.28,1.29-.81,3.15-.1,5.07s-1,3.7-2.79,1.75c-3-3.38-3.13-2.81-6.64-1.42s-4,.1-2.57-1.88c2.15-3,1.92-3.73,0-6-1.61-1.86-2.14-2.49-1.61-5.43a45.2,45.2,0,0,0,4.49,2.17,2.64,2.64,0,0,0,3.5-.88v0C918.14,841.9,919,840.78,919.6,840.68Zm139.88-.37c-4.54-.21-5.09,5.62-.09,4.85C1061.32,844.86,1062.05,842.15,1059.48,840.31Zm128.64-.14a80.09,80.09,0,0,1,12.85.65c8.21,1.07,7.91,3.76,2.64,3.42-16.41-1.22-24.35,4.09-10.88,5.63,6.69.81,13.84,5.24.82,8.34-9.7,2.33-29.43,4.08-39.55-.77-12-5.75.28-16.26,12.37-15.38-7.1,1.14-12.28,9.56,2.39,10.44,10.85.68,17.41-1.76,7.33-3.34v.07c-10-1.56-8-6-.77-7.66A79.94,79.94,0,0,1,1188.12,840.17Zm-124.41-6.58c3.35-.62,6.23,4.13,1.68,6.06-2.76,1.17-2.36,2.83-.16,3a2.9,2.9,0,0,1,3,2.81,3,3,0,0,1-.38,1.52c-.71,1.41-2.6,2.25-4.75,1.14-3.62-1.85-4,0-5.16,1.35a2.84,2.84,0,0,1-4.61-.51l-.08-1.55,0-1.78a1.8,1.8,0,0,0-1.2-.86c-2.86-.58-2.32-3.73-.18-4,1.19-.13,1.87-.8.81-1.82-1.77-1.7-1.09-3.56.24-4.28a2.9,2.9,0,0,1,3.86,1.21c.89,1.85,2.57,2.31,3.66.39A5,5,0,0,1,1063.71,833.59ZM975,832c1.51-.38,2.46,1.83,3.95,1.24,1.66-.66,2.23-.28,3,1.49s2.77.68,3.48,2.84c-2.76,9.43-14,9.18-16.92.32a1.63,1.63,0,0,1-.08-.44,1.61,1.61,0,0,1,1.54-1.67c1.75-.29,1.77-.29,3.31-2.33A3.46,3.46,0,0,1,975,832Zm43.28-15c2.47-.57,5.32.21,6.33,2h-.06c1.86,3.37,6.79-2.21,10,2.18,1.29,1.8.08,2.68,3.07,3.83,4.78,1.84,14-5.54,18.8,6.79-14.42-11.37-25.35,12-35.58,3.24a9.93,9.93,0,0,0-7.36-3c-7.24.88-7.77-9.34.72-8.94A5,5,0,0,1,1018.25,817ZM1128,814.41c5.9,3.68,6.88,12.94,5.9,15.07-1.92,4.11-4.07,7.54.1,14.45,1.85,6.25-6.71-.83-8-6.32-1.43-5.74.09-8.35,1.71-11.53A12.7,12.7,0,0,0,1128,814.41Zm75.25-8.87c10.82,1.16,12.61,15.46,28.9,5.93,9.69-5.67,10-1,3.22,5.8-8.64,8.65-5.24,15.2-.71,24.36,5.14,10.35,1.54,9.65-1.34,6.87-3.13-3-12.17-19.63-11.29-6.12.34,5.15,2,9.8,3.53,14.4,3.62,10.51-2.55,4.27-5.36.07-3.83-5.79-7-15.58-8-25.77-1.51-15.13-5.75-18.37-14.18-25.12A15.13,15.13,0,0,1,1203.23,805.54ZM1167,803.65c2.36-.76,5.36,1.6,9.3,10.35s13.85,8.12,17.31-.48c14.65,16.42-8.94,32.39-20.26,13-6.28-10.75-6.18,14.84-17.71,5.14-2.27-1.92-7-7.38-8.2-1.16-1.69,8.89-5.35,12.27-7.46,1h-.09c-2.15-12.22,5.38-24.09,10.9-16.44,7.23,10,8.86,2.3,10.75-3C1162.9,808.3,1164.61,804.41,1167,803.65Zm50.71-1.59c3.18-.48,6.69,2.94,6.35,6.94C1222.82,816.19,1212.17,810.82,1217.68,802.06Zm-111.62-8.59a21.23,21.23,0,0,1,7.51,1.91l0,.07c-12.1,4.22-14.53,13.49-14.67,19.79,11.88-3.72,20.7.29,24,6.52-6.3-1.77-9-2.31-18.28.75,7,4.69,6.69,7.32,6.6,15.29-11.34-20.16-40.21-4.62-7.29,25.19-2.35,1.72-5.28,2.6-9,3.58-4.61,1.23-8.59.24-11.56-8.43-2.58-7.57-3.68-16.72.21-25-1.46-1.67-10.1-2.18-9.8,7.09-7.21-6.76-1.42-13.3,4.77-15.2-6.26-.86-11.33,1.74-17.17,5a18.49,18.49,0,0,1,.3-4.87,16.92,16.92,0,0,1,17-5.88c-6.87-3.67-13.27-3-21.13,0a59.66,59.66,0,0,1,3.44-6.08c10-3.91,14.72-3,21.61.92-2.27-6.22-8.77-9.33-17-8,9.07-5.65,18.49-3.63,23.53,4.16C1088.57,801.93,1099.32,794.43,1106.06,793.47Zm14-.28a5.65,5.65,0,0,1,2,1.63,11.6,11.6,0,0,1,2.25,5.57c.74,8.45-9.64,12.86-15.42,5,4.54,1.7,5.07-7.43,11.67-4.86,2.58,1.06,2.82-.6,1.5-2.6-1-1.4-4.65-2.48-3.86-4.18C1118.53,792.86,1119.27,792.84,1120,793.19Zm112.37-.91c2.34.23,4.67.93,10.51,3.25,2.15.86,4.08,2.87,1.69,8.07h0C1237.16,799.73,1228.13,791.75,1232.39,792.28Zm-76.93-5.38c1.82-.27,3.53,0,3.53,1.76,0,3.14-2.33,7.55-5.13,9-.86.45-3.59,1.82-3.54,1.88,1.11,1.15,2.44,4,1.29,5.67-1.86,2.83-3.55,2.68-4.21-.23l0,0c-1.28-5.76-.57-13.64,3.86-16.74A13.17,13.17,0,0,1,1155.46,786.9Zm90.52-4.62h0c-.36,6.51-3.68,7.27-8.76,5.86-5.5-1.46-4.28-3.07-1-4.35S1244.68,781.88,1246,782.28Zm-25.13-.87c4.64-.45,9.18,2.52,8.71,8.91-.93,12.78-14.8,9-18,2.7C1211.48,785.73,1216.22,781.86,1220.85,781.41Zm-90.55-3.17v0c12.39.9,19.61,16.65,11.23,25.75-13.72,13.26-17.27-3.13-5.89-4.69,3.78-1.27,1.08-3.21-1.9-4.5C1128.63,792.63,1126.93,783.69,1130.3,778.24Zm58.44-6.47a37.8,37.8,0,0,1,7.12.15c-1.13,5.53-3,6.83-7.64,9.4s.41,8.84,4.36,4.25c5.73-6.68,4,9,1.49,11.88-8.31-8.12-10.45,5.61-.15,4.79.36,1.56,1.17,3.73,1.94,6.21-7,1.22-20.18-.61-24.75-14.92-2.53-1.48-5.82-1.07-8.68-.52,1.37-4.52,3.74-7.75,9.62-7.75C1175.51,775.61,1181.77,772.36,1188.74,771.77Zm52-7.08c5.49.48,5.44,5.21,1.5,8.07a87.16,87.16,0,0,1-11.15,6.57C1221.13,783.86,1236.07,766.64,1240.74,764.69Zm-33.88-1,6,9.16c4.59,8.81,4.13,8.7-5.55,2.66-6.09-4.82-12.69-10.49-4.78-11.63Zm14.84-.52,0,.08c2.72-.74,6.55.29,7.23,1.51a9.79,9.79,0,0,0-3.44,5.49c-.93,3.75-3.26,6.39-5.26,3C1218.55,770.44,1217.88,764.11,1221.7,763.17Z" fill="#00dec9" fill-opacity="0.47" fill-rule="evenodd"/><path d="M1068.55,402.66v-4.05H1065v4.05h-2v-9.05h2v3.93h3.59v-3.93h2v9.05Zm142.68,0v-9.05H1213v9.05Zm-6.5.17c-1.19,0-1.74-.66-1.74-2.07a1.9,1.9,0,0,1,.6-1.62,5.71,5.71,0,0,1,3.17-.61h.16v-.8c0-.41-.23-.91-1.28-.91a5.19,5.19,0,0,0-2.13.62v-1a3.86,3.86,0,0,1,2.18-.64,4.62,4.62,0,0,1,2.14.4,1.6,1.6,0,0,1,.86,1.58v4.94h-1.75v-1l-.25.23a3,3,0,0,1-2,.9Zm2-3.45h0a2.75,2.75,0,0,0-1.46.27,1.07,1.07,0,0,0-.42.94c0,.91.54,1.05.85,1.05a2.2,2.2,0,0,0,1.12-.53l0,0,0-.07v-1.63Zm-6.47,3.45a2.42,2.42,0,0,1-1.86-.53,2.85,2.85,0,0,1-.39-1.83v-3.56h-1v-1h1v-1.5l1.77-.5v2h1.59v1h-1.59v3.56a1.86,1.86,0,0,0,.2,1,.82.82,0,0,0,.77.35,2.3,2.3,0,0,0,.45-.05v1c-.48,0-.8.05-1,.05Zm-7-.17V396h1.77v6.7Zm.91-8h0c-.67,0-1-.27-1-.84s.31-.84,1-.84,1,.26,1,.84S1194.88,394.7,1194.21,394.7Zm-9,10.29v-9h1.64v1l.27-.25a2.8,2.8,0,0,1,1.83-1,1.72,1.72,0,0,1,1.63.89,5.59,5.59,0,0,1,.48,2.64,4.68,4.68,0,0,1-.57,2.63,2.69,2.69,0,0,1-2.32.9,3,3,0,0,1-1-.22l-.21-.07V405Zm2.9-7.91h0a2,2,0,0,0-1.06.43l0,0,0,.06v4h0a2.06,2.06,0,0,0,1,.22c.56,0,.92-.34,1.08-1a7.45,7.45,0,0,0,.11-1.56,6.6,6.6,0,0,0-.08-1.33,1,1,0,0,0-1-.87Zm-7.58,5.73a3.59,3.59,0,0,1-1.93-.57v-1.08a2.66,2.66,0,0,0,1.78.65,1.55,1.55,0,0,0,1.06-.28.58.58,0,0,0,.21-.43c0-.43-.31-.77-.92-1a11.86,11.86,0,0,1-1.52-.63,1.82,1.82,0,0,1-.75-1.61,2,2,0,0,1,.46-1.33,2.59,2.59,0,0,1,2.07-.76,4.23,4.23,0,0,1,1.82.39v1a3.47,3.47,0,0,0-1.89-.43c-.85,0-1,.53-1,.85s.32.58,1,.8a5.56,5.56,0,0,1,1.52.66,2,2,0,0,1,.78,1.7c0,1.41-.88,2.09-2.68,2.09Zm-7.08,0c-2.22,0-3.3-1.15-3.3-3.53s1.08-3.53,3.3-3.53,3.29,1.16,3.29,3.53S1175.66,402.81,1173.45,402.81Zm0-6h0a1.3,1.3,0,0,0-1.33.82,7.07,7.07,0,0,0,0,3.34,1.31,1.31,0,0,0,1.33.84,1.28,1.28,0,0,0,1.31-.84,6.75,6.75,0,0,0,0-3.34A1.27,1.27,0,0,0,1173.45,396.79Zm-7.54,5.85v-4h-3.59v4.05h-2v-9.05h2v3.93h3.59v-3.93h2v9.05Zm-14.66,0V396h1.66v1.29l.28-.43a1.87,1.87,0,0,1,1.51-1h.22V397a2.5,2.5,0,0,0-.55,0,1.85,1.85,0,0,0-1.31.84l0,4.86Zm-4.63.17c-2.11,0-3.14-1.15-3.14-3.53a4.28,4.28,0,0,1,.67-2.64,2.83,2.83,0,0,1,2.29-.89,2.54,2.54,0,0,1,2.38,1,6.42,6.42,0,0,1,.5,3h-3.94v.16a2.35,2.35,0,0,0,.35,1.5,1.5,1.5,0,0,0,1.19.4,4.48,4.48,0,0,0,2.15-.54v1a5.44,5.44,0,0,1-2.44.58Zm-.14-6h0a1,1,0,0,0-1,.68,3.65,3.65,0,0,0-.15,1.23v.16h2.2v-.16a5.52,5.52,0,0,0-.07-1.22A1,1,0,0,0,1146.48,396.79Zm-6.57,6a3,3,0,0,1-2.55-1.12,4.87,4.87,0,0,1,0-4.82,2.93,2.93,0,0,1,2.55-1.12,2.76,2.76,0,0,1,1.7.52v1a3.57,3.57,0,0,0-1.7-.53,1.23,1.23,0,0,0-1.23.87,5.36,5.36,0,0,0-.19,1.69,5.69,5.69,0,0,0,.19,1.7,1.21,1.21,0,0,0,1.23.87,3.37,3.37,0,0,0,1.81-.57v1A3,3,0,0,1,1139.91,402.81Zm-6.84-.17V398a.94.94,0,0,0-.81-1h-.21a2.14,2.14,0,0,0-1.23.46l0,0,0,.07v5.15H1129V396h1.65v.93l.27-.25a2.53,2.53,0,0,1,1.78-.79,2.47,2.47,0,0,1,1.58.46,1.47,1.47,0,0,1,.58,1.25v5.1Zm-10.34.17c-1.19,0-1.74-.66-1.74-2.07a1.92,1.92,0,0,1,.59-1.62,5.75,5.75,0,0,1,3.18-.61h.16v-.8c0-.41-.22-.91-1.28-.91a5.14,5.14,0,0,0-2.13.62v-1a3.86,3.86,0,0,1,2.18-.64,4.64,4.64,0,0,1,2.14.4,1.6,1.6,0,0,1,.86,1.58v4.94H1125v-1l-.26.23a2.94,2.94,0,0,1-2,.9Zm2-3.45h0a2.73,2.73,0,0,0-1.46.27,1.07,1.07,0,0,0-.42.94c0,.91.53,1.05.85,1.05a2.28,2.28,0,0,0,1.12-.53l0,0,0-.07v-1.61Zm-7.65,3.4a4.12,4.12,0,0,1-3.09-1,7.08,7.08,0,0,1,0-7.37,4.19,4.19,0,0,1,3.09-1,5.3,5.3,0,0,1,1.85.32v1.17a4.73,4.73,0,0,0-1.85-.4,1.8,1.8,0,0,0-1.68.9,7.63,7.63,0,0,0,0,5.38,1.79,1.79,0,0,0,1.68.89,4.29,4.29,0,0,0,2-.58v1.18a4,4,0,0,1-2,.49Zm-11.79-.12V398a1,1,0,0,0-.82-1h-.2a2.17,2.17,0,0,0-1.24.46l0,0,0,.06v5.15h-1.78V396h1.66v.93l.26-.25a2.53,2.53,0,0,1,1.78-.79,2.47,2.47,0,0,1,1.58.44,1.49,1.49,0,0,1,.58,1.24v5.11Zm-10.35.17c-1.18,0-1.73-.66-1.73-2.07a1.92,1.92,0,0,1,.59-1.62,5.75,5.75,0,0,1,3.18-.61h.15v-.8c0-.41-.22-.91-1.27-.91a5.19,5.19,0,0,0-2.14.62v-1a3.87,3.87,0,0,1,2.19-.64,4.66,4.66,0,0,1,2.14.4,1.62,1.62,0,0,1,.85,1.58v4.94h-1.74v-1l-.25.23a3,3,0,0,1-2,.9Zm2-3.45h0a2.62,2.62,0,0,0-1.46.27,1.07,1.07,0,0,0-.43.94c0,.91.54,1.05.85,1.05a2.2,2.2,0,0,0,1.12-.53l0,0,0-.07v-1.61Zm-7.49,3.28V398a.93.93,0,0,0-.81-1h-.21a2.17,2.17,0,0,0-1.23.46l0,0,0,.07v5.15h-1.77V396h1.66v.93l.26-.25a2.63,2.63,0,0,1,3.37-.33,1.49,1.49,0,0,1,.57,1.25v5.1Zm-8.56,0V396h1.77v6.7Zm.91-8h0c-.67,0-1-.27-1-.84s.31-.84,1-.84,1,.27,1,.84-.31.87-1,.87Zm-7.26,8.13c-1.18,0-1.73-.66-1.73-2.07a1.92,1.92,0,0,1,.59-1.62,5.75,5.75,0,0,1,3.18-.61h.15v-.8c0-.41-.22-.91-1.28-.91a5.19,5.19,0,0,0-2.13.62v-1a3.87,3.87,0,0,1,2.19-.64,4.66,4.66,0,0,1,2.14.4,1.62,1.62,0,0,1,.85,1.58v4.94h-1.77v-1l-.26.23a2.82,2.82,0,0,1-1.93.9Zm2-3.45h0a2.71,2.71,0,0,0-1.46.27,1.07,1.07,0,0,0-.43.94c0,.91.54,1.05.86,1.05a2.28,2.28,0,0,0,1.12-.53l0,0,0-.07v-1.61Z" fill="#71756f" fill-rule="evenodd"/><path d="M1094.25,379.69a4.28,4.28,0,0,1-2.18-1.33,5.69,5.69,0,0,1-.81-1.23h6.33a5,5,0,0,1-.81,1.23,4.2,4.2,0,0,1-2.18,1.33Zm-23.63-5a1.66,1.66,0,0,0-1.64,1.69v3.16h-1v1.87h1v3.36a1.67,1.67,0,0,0,1.64,1.69h8a.8.8,0,0,1-.89.69h-6.22V389h7a2.38,2.38,0,0,0,2.64-2.41v-.11h1.1V384.6h-1.16a1.58,1.58,0,0,0,0-.38v-2.8h1.15v-1.86h-1.15v-3.17a1.66,1.66,0,0,0-1.64-1.69h-8.83Zm5.59,9.91V381.4h2.38v3.19Zm0-5.06v-3h2.38v3Zm-2.18-3v3h-2.51v-3Zm0,4.86v3.19h-2.51V381.4Zm-6.67-4.86a12.58,12.58,0,0,0-4.13-1.1v2.07a10.87,10.87,0,0,1,4.12,1v-2Zm0-4.86a12.81,12.81,0,0,0-4.13-1.09v2.06a11,11,0,0,1,4.12,1.05v-2Zm-1.91,9.56a8.12,8.12,0,0,1-.86,3.28,4.17,4.17,0,0,1-1.59,1.7V389h0a4.39,4.39,0,0,0,3-2,9.81,9.81,0,0,0,1.4-5.75Zm2.32-7.4a7,7,0,0,0,2.09-3.65h2.41a6,6,0,0,1-.45,1.44h10.32v1.87h-11.43a6.1,6.1,0,0,1-3,2.31v-2Zm114.11,2.28v1.59a6.12,6.12,0,0,1-.16,1.42h-7.06V381h6.3c-1.74,2.76-5.48,3.56-6.3,3.71v1.7c1.65-.13,6.36-.68,8.5-4.33l.08.11a16.55,16.55,0,0,0,1.69,1.76,9.61,9.61,0,0,0,5.17,2.46v-1.82a10.3,10.3,0,0,1-3.63-2.12,11.54,11.54,0,0,1-1.32-1.47h4.95v-1.82h-5.86v-3h5.87V374.3h-11.37a7.15,7.15,0,0,0,.08-1h-2.24a3.72,3.72,0,0,1-1.93,3.41v1.83a4.45,4.45,0,0,0,3.47-2.41Zm-8.93-5.37h17.2v2H1173.9V387h16.24v2H1173a1.79,1.79,0,0,1-1.76-1.82V372.56a1.77,1.77,0,0,1,1.76-1.81Zm-50.27,4c-2.2,2.39-5.61,3.22-16.38,3.22l0-1.82a66.42,66.42,0,0,0,7.85-.35V370h2.48v5.34a8.41,8.41,0,0,0,4.55-2.47,5.17,5.17,0,0,1-.42-2.09h2.32a3.28,3.28,0,0,0,2,3.09v1.75a4.23,4.23,0,0,1-2.45-.92Zm-15.88-.84v1.76a4.7,4.7,0,0,0,4.34-4.86h-2.33a3.26,3.26,0,0,1-2,3.09Zm16.31,4.79a1.64,1.64,0,0,1,1.6,1.66v7a1.63,1.63,0,0,1-1.6,1.65h-14.48a1.63,1.63,0,0,1-1.6-1.65v-7a1.63,1.63,0,0,1,1.6-1.66Zm-.88,2.94v-1.11h-12.74v1.12Zm0,1.65h-12.74v1.11h12.74Zm0,2.77h-12.74v1.11h12.74Zm28.09-4c0,2.32-.21,4.12-1.65,5v1.87c2-.46,4.08-1.38,4.19-7.1h0v-8.4h15.9v-1.87h-7.34v-1.49h-2.37v1.49H1152a1.68,1.68,0,0,0-1.64,1.7v1.3a15.54,15.54,0,0,0-1.66-.28v2.07c.59.06,1.16.13,1.65.23v3.51c-.5.09-1.06.17-1.65.23v2.06a15.75,15.75,0,0,0,1.65-.27ZM1166.8,389h-11.59a1.55,1.55,0,0,1-1.5-1.55v-5.34a1.55,1.55,0,0,1,1.5-1.54h11.6a1.55,1.55,0,0,1,1.5,1.54v5.32a1.54,1.54,0,0,1-1.5,1.54Zm-.83-6.61V384h-3.78v-1.57Zm0,3.22v1.57h-3.78v-1.57Zm-9.94,1.57v-1.57h3.79v1.57Zm0-3.22v-1.57h3.79V384Zm-.82-9.67h4.9v1.82H1156v1.77h4.08v1.82h-4.9a1.55,1.55,0,0,1-1.5-1.55v-2.31a1.54,1.54,0,0,1,1.5-1.54Zm5.77,3.77a3.13,3.13,0,0,0,1.84-2H1161v-1.82h5.84a1.55,1.55,0,0,1,1.5,1.54v2.32a1.55,1.55,0,0,1-1.5,1.54h-2.18v-1.82H1166v-1.77h-1a4.42,4.42,0,0,1-4,3.59v-1.62Zm-29.06-.72h-1.67v3.33h1.67Zm12.43-2.62h-2v9.75h2v-9.74Zm-4.43,0h-2.07v9.75h2.05v-9.74Zm-2.05-1.87h2.05v-2.63h2.38v2.63h3a1.68,1.68,0,0,1,1.64,1.7v10.08a1.68,1.68,0,0,1-1.64,1.7h-3V389h-2.38v-2.63h-3a1.68,1.68,0,0,1-1.64-1.7V374.55a1.68,1.68,0,0,1,1.64-1.7Zm-10,9.26V372a1.64,1.64,0,0,1,1.61-1.65h3.26a1.62,1.62,0,0,1,1.6,1.59v14.65a2.31,2.31,0,0,1-2.57,2.35h-1.79v-1.82h1c.45,0,.94-.09.94-1v-3.68h-1.67v0h0c-.15,5.16-2,6-3.93,6.43v-1.77c1.44-.83,1.54-2.69,1.54-5.08Zm2.4-9.92v3.31h1.67v-3.32Zm72.38,7.18h-3.06v1.82h3c-.1,3.75-1.7,5.18-3,6.14V389c3.11-.89,5.33-3.63,5.43-7.76h2.57v6.17a1.56,1.56,0,0,0,1.54,1.59h3.59v-1.82h-2.74V381.2H1213v-1.82h-10.39Zm9.24-1.52h-11.29V376h11.29Zm-1.16-4.72v2h2.3V372.9a1.55,1.55,0,0,0-1.51-1.59h-4v-1.1h-2.4v1.1h-4a1.55,1.55,0,0,0-1.5,1.58h0v2.24h2.31v-2Zm-14.18,5.31v4.35h-1.4v-4.33Zm.27,6.22h.57a1.58,1.58,0,0,0,1.55-1.6V379a1.63,1.63,0,0,1,0-3.08V372a1.56,1.56,0,0,0-1.54-1.59h-4.62V389h2.38v-4.3h1.66Zm-.27-12.43v4.35h-1.4v-4.34Zm-101-2.06h-2.47v1.48h-8.15v1.86h8.15v1.81h-6.22a1.63,1.63,0,0,0-1.6,1.65v12h2.48V377.13H1089a9.68,9.68,0,0,0,1.8,2.23,4.35,4.35,0,0,0,.42.33h-2.45v1.87h4.29v1.8h-4.29v1.86h4.29V389h2.48v-3.75h4.33v-1.86h-4.33v-1.8h4.33v-1.87h-2.25a3.39,3.39,0,0,0,.42-.33,9.43,9.43,0,0,0,1.8-2.23h1v9.06c0,.74-.36.81-.73.81h-1v2h2.49c1.28,0,1.77-.72,1.76-2v-2.16h0V377a1.64,1.64,0,0,0-1.6-1.66h-6.22v-1.8h8.13v-1.86h-8.13Z" fill="#71756f" fill-rule="evenodd"/><path d="M1026.24,365c1,.23.82,1.82.39,2.53s-1.12.18-1.36-.76a2.43,2.43,0,0,0-.89-1.37,2.09,2.09,0,0,1,1.87-.38Zm16.6,29.68c.75-1.56,2.33-2.52,4.86-1.18a2.82,2.82,0,0,0,3.85-.62,7.31,7.31,0,0,1-.39,2.27,4,4,0,0,1-4.16,0c-1.1-.65-2.48-.79-3.27.25s-1.64.83-.89-.74Zm-.21-1.34c-.23-.67-.9-.38-1.11-.88s-.42-.66-1-.46-1-1.06-1.83.06c-.49.64-.49.64-1,.73a.51.51,0,0,0-.5.52.61.61,0,0,0,0,.13A2.78,2.78,0,0,0,1042.63,393.38Zm5.58-7.6c1.51.84,2.42-.41,3.36-1.4.51,1,.44,4.29-.78,3.61-1-.55-1.47-1.1-2.75-.28-2.23,1.43-5.17-.62-5.16-1.38C1044.51,384.47,1046.63,384.9,1048.21,385.78Zm-34.26-.84c-.39-1.69-.17-4,1.17-4.91.26-.18,2.33-.94,2.33.11a3.43,3.43,0,0,1-1.55,2.65c-.26.13-1.09.53-1.07.55.33.33.74,1.16.38,1.66-.56.83-1.07.79-1.27-.07ZM1047.8,378a1.2,1.2,0,0,1-1.56.38,20.27,20.27,0,0,1-2-.94,2.11,2.11,0,0,0,.72,2.35c.85,1,1,1.28,0,2.59-.63.85-.42,1.41,1.14.81s1.6-.85,3,.61c.78.84,1.56.08,1.24-.76s-1-1.63,0-2.19c2.13-1.17,1.58-1.59.06-1.75-.91-.1-.89-.36-.94-.87-.2-2.15-.83-1.61-1.67-.21Zm-24-8.94c2.58,1.14-1.29-3.17-2.5-3.66-1.42.12-1.41,1.3-.39,2A24.16,24.16,0,0,0,1023.81,369.08Zm1.42,38.14c-2.21-1-3.75-.4-4.28.28s-2.09.41-1.56-1.29a2.59,2.59,0,0,1,3.86-1.61,2,2,0,0,0-2,1.17,3,3,0,0,1,4,1.45Zm-5.9-3.49c-.5,2,1.82-.26,2.18-2a5.09,5.09,0,0,0-.46-3.7,4.77,4.77,0,0,1-.09-3.76c-1.6,1.19-1.87,4.16-1.6,4.85A4.59,4.59,0,0,1,1019.33,403.73Zm30.56-12.26c2.63,1.72,3-2.21,0-2.8s-2.93,3.12-7,.42c-2.13-1.4-4.71.51-5.07,2.44a2.63,2.63,0,0,1,4-.72c1.91,1.47,3.24,1.58,4.78.6C1048.43,390.21,1049,390.91,1049.89,391.47Zm-41.13-14.39c-1,1.6-.5,4.22,1,4.87.91.38,1.72.95.58,1.32-3.45.46-2.37,5.28,1.78,1.38,2.54-2.67.36-7.3-3.4-7.56Zm21.32-11.91c3.66-.08,1.68,1.58-.12,3-2.5,1.51-2.62,1.54-1.43-.67A14.17,14.17,0,0,1,1030.08,365.17Zm6.46,41.83c-1.43,1.05.8,1.17,1.63.52,1.44-1.44,1.16-3,.08-4.65C1037.93,402.4,1038.64,405.85,1036.54,407Zm-3-5.17a.74.74,0,0,0-.5-1.13c-1.26-.25-1-1.59-.09-1.69.53-.05.82-.34.36-.77a1,1,0,0,1,.11-1.82,1.3,1.3,0,0,1,1.69.51c.39.79,1.13,1,1.61.17,1.7-2.9,4.83.33,2.16,1.43-1.21.5-1,1.2-.07,1.27a1.25,1.25,0,0,1,1.31,1.19,1.24,1.24,0,0,1-.17.65,1.5,1.5,0,0,1-2.09.49c-1.58-.79-1.76,0-2.26.57-.88,1-2.45,0-2.06-.88Zm2.75-3c-2-.09-2.24,2.39,0,2.06C1037.14,400.75,1037.46,399.59,1036.33,398.81Zm-8.51,3.32a4.56,4.56,0,0,1,4.45,3.87c.18.8.65,1.05.83.35a3,3,0,0,1,2.78-2.05,3.32,3.32,0,0,1-2.54,3.63C1029.62,408.51,1027.75,405.28,1027.82,402.13Zm4.58-32.81a2.75,2.75,0,0,0-2.9,2.27,4,4,0,0,1,2.62.16,6.54,6.54,0,0,0,7.48,4.37c-.24-.73-.48-1.36-.59-1.82-3.11.24-2.47-3.78,0-1.4.75-.84,1.28-5.44-.45-3.48-1.19,1.34-2.72-.5-1.32-1.25s2-1.13,2.32-2.75C1036.69,365.12,1033.8,365.55,1032.4,369.32Zm-13.3,10.59a2.73,2.73,0,0,0,2.44,4.77,4,4,0,0,0,1.75-1c.34-.35.78-1.13.17-1.31s-.78,1.08-1.2,1.46c-.59.53-1.16.53-.94-.36C1021.84,381.19,1018.77,381.47,1019.1,379.91Zm-3,5.24c3.5,2.71,5.27,4,5.89,10.11a24.14,24.14,0,0,0,3.33,10.38c1.17,1.69,3.73,4.2,2.23,0a21.48,21.48,0,0,1-1.47-5.8c-.37-5.44,3.39,1.25,4.69,2.47s2.69,1.4.55-2.77c-1.87-3.69-3.29-6.32.3-9.81,2.84-2.75,2.68-4.62-1.34-2.33C1022.55,391.75,1022.68,383.6,1016.1,385.15Zm10.82,1.22c-.5,2.9-4.92.73-2.64-2.79A2.56,2.56,0,0,1,1026.92,386.37Zm-18.84,4.42c.39,2,1.07,1.42,1.38-.17.21-1.11,1.09-.13,1.51.21,2.13,1.74,2.11-2.84,3.27-.92,2.09,3.46,6.44.61,3.74-2.33a1.68,1.68,0,0,1-3.2.08c-1.45-3.13-2.21-1.69-2.72-.34-.35.94-.65,2.33-2,.53-1-1.37-2.41.76-2,2.94Zm5.71,3.27c-2.08-.31-1.66-1.21-.16-1.54a17.33,17.33,0,0,1,5.33-.16c1.7.22,1.64.76.55.69-3.41-.24-5.06.83-2.26,1.14,1.38.16,2.87,1.05.17,1.68-2,.47-6.11.82-8.22-.16-2.49-1.16.06-3.27,2.57-3.1-1.47.24-2.55,1.93.5,2.11,2.25.13,3.61-.36,1.52-.68Zm13.77-19a5.9,5.9,0,0,1,4.33,5.74c-3.51-1.08-6.11.08-7.08,1.89,1.86-.51,2.67-.67,5.39.22-2.07,1.36-2,2.12-2,4.43,3.34-5.84,11.85-1.34,2.15,7.31a7.62,7.62,0,0,0,2.66,1c1.36.36,2.53.07,3.41-2.45a9.58,9.58,0,0,0-.06-7.25c.43-.48,3-.63,2.88,2.06,2.13-2,.42-3.86-1.4-4.41,1.84-.25,3.34.5,5.06,1.45a5.55,5.55,0,0,0-.09-1.41,5,5,0,0,0-5-1.71c2-1.06,3.91-.86,6.23,0a17.93,17.93,0,0,0-1-1.76c-2.93-1.14-4.33-.86-6.36.26.66-1.8,2.58-2.7,5-2.31-2.67-1.64-5.45-1.05-6.93,1.21.18-2.43-3-4.61-5-4.89a6.54,6.54,0,0,0-2.22.56Zm-3.56.54c-.56,1-2-.65-3,.65-.39.53,0,.79-.92,1.13-1.44.55-4.2-1.64-5.65,2,4.33-3.37,7.62,3.55,10.69,1a3,3,0,0,1,2.21-.88c2.18.26,2.34-2.77-.21-2.65.31-2.14-2.51-2.27-3.12-1.22Zm4.87-3.1c-.83,1.57-4.42,2.52-4.66-.68S1028.9,368.86,1028.87,372.51Zm-8.55,2.65c-.62-1.3-.13-1.81.43-2a10.24,10.24,0,0,1,2.72-.82C1024.57,372.19,1022.24,374.19,1020.32,375.16Zm-.37-5.34a6.27,6.27,0,0,1,2.52.38c.86.32,1.17.72-.25,1.09S1020,371.45,1020,369.82Z" fill-rule="evenodd" fill="url(#未命名的渐变_3)"/><path d="M236,520.12A23.12,23.12,0,0,1,259.12,497H708.88A23.12,23.12,0,0,1,732,520.12V657.88A23.12,23.12,0,0,1,708.88,681H259.12A23.12,23.12,0,0,1,236,657.88Z" fill-opacity="0.15" fill-rule="evenodd"/><path d="M220,503.12A23.12,23.12,0,0,1,243.12,480H692.88A23.12,23.12,0,0,1,716,503.12V640.88A23.12,23.12,0,0,1,692.88,664H243.12A23.12,23.12,0,0,1,220,640.88Z" fill="#03cd98" fill-rule="evenodd"/><path d="M236,555.59A11.59,11.59,0,0,1,247.59,544H683.41A11.59,11.59,0,0,1,695,555.59v77.82A11.59,11.59,0,0,1,683.41,645H247.59A11.59,11.59,0,0,1,236,633.41Z" fill="#61fbd6" fill-rule="evenodd"/><path d="M288.41,526.05v-3.37h-2.85v3.37H284v-7.54h1.56v3.27h2.85v-3.27H290v7.54Zm113.18,0v-7.54H403v7.54Zm-5.15.14c-.94,0-1.38-.54-1.38-1.72a1.64,1.64,0,0,1,.47-1.35,4.38,4.38,0,0,1,2.52-.52h.13v-.66c0-.34-.18-.75-1-.75a3.78,3.78,0,0,0-1.69.51v-.86a2.94,2.94,0,0,1,1.73-.53,3.55,3.55,0,0,1,1.7.33,1.35,1.35,0,0,1,.68,1.32v4.11H398.2v-.79l-.21.19a2.29,2.29,0,0,1-1.56.75Zm1.61-2.88h0a2.13,2.13,0,0,0-1.16.23.92.92,0,0,0-.33.79c0,.75.42.87.67.87a1.72,1.72,0,0,0,.89-.45l0,0,0-.05v-1.37Zm-5.13,2.88a1.88,1.88,0,0,1-1.48-.44,2.48,2.48,0,0,1-.31-1.52v-3h-.77v-.8h.79v-1.25l1.4-.42v1.67h1.27v.8h-1.27v3a1.73,1.73,0,0,0,.16.84.63.63,0,0,0,.61.29,2.2,2.2,0,0,0,.36,0v.83Zm-5.55-.14v-5.59h1.4v5.59Zm.73-6.63h0c-.54,0-.78-.23-.78-.7s.24-.71.78-.71.78.23.78.71S388.63,519.42,388.1,519.42ZM381,528v-7.53h1.31v.86l.21-.21a2.19,2.19,0,0,1,1.45-.8,1.34,1.34,0,0,1,1.29.74,4.77,4.77,0,0,1,.38,2.2,4.07,4.07,0,0,1-.45,2.19,2.07,2.07,0,0,1-1.84.75,2,2,0,0,1-.77-.18l-.17-.06v2Zm2.3-6.59h0a1.61,1.61,0,0,0-.84.36l0,0,0,.06v3.33h0a1.52,1.52,0,0,0,.77.19c.44,0,.73-.29.86-.85a6.17,6.17,0,0,0,.08-1.29,5.91,5.91,0,0,0-.06-1.11.8.8,0,0,0-.79-.73Zm-6,4.77a2.73,2.73,0,0,1-1.53-.47v-.9a2.09,2.09,0,0,0,1.41.55,1.21,1.21,0,0,0,.84-.25.43.43,0,0,0,.17-.35c0-.36-.25-.64-.73-.84a8.69,8.69,0,0,1-1.21-.53,1.57,1.57,0,0,1-.6-1.34,1.72,1.72,0,0,1,.37-1.1,2,2,0,0,1,1.64-.64,3.05,3.05,0,0,1,1.45.33v.84a2.73,2.73,0,0,0-1.5-.35c-.67,0-.77.44-.77.71s.24.48.76.66a4.5,4.5,0,0,1,1.2.55,1.68,1.68,0,0,1,.62,1.42c0,1.17-.7,1.74-2.13,1.74Zm-5.62,0c-1.76,0-2.62-1-2.62-2.94s.86-2.94,2.62-2.94,2.61,1,2.61,2.94S373.38,526.17,371.62,526.17Zm0-5h0a1,1,0,0,0-1.05.68,6.16,6.16,0,0,0,0,2.79,1,1,0,0,0,1.05.69,1,1,0,0,0,1-.7,5.77,5.77,0,0,0,0-2.78A1,1,0,0,0,371.62,521.16Zm-6,4.87v-3.35H362.8v3.37h-1.56v-7.54h1.56v3.27h2.85v-3.27h1.55v7.54ZM354,526v-5.57h1.32v1.08l.22-.35a1.47,1.47,0,0,1,1.2-.83h.17v1a2.08,2.08,0,0,0-.43,0,1.47,1.47,0,0,0-1,.7l0,4Zm-3.67.14c-1.68,0-2.49-1-2.49-2.94a3.71,3.71,0,0,1,.53-2.2,2.2,2.2,0,0,1,1.82-.74,2,2,0,0,1,1.89.83,5.67,5.67,0,0,1,.39,2.47h-3.12v.14a2.08,2.08,0,0,0,.27,1.25,1.17,1.17,0,0,0,.95.33,3.58,3.58,0,0,0,1.71-.45v.82a4.28,4.28,0,0,1-1.94.48Zm-.11-5h0a.75.75,0,0,0-.76.57,2.92,2.92,0,0,0-.12,1v.13h1.74v-.13a5,5,0,0,0,0-1A.76.76,0,0,0,350.23,521.16Zm-5.21,5a2.31,2.31,0,0,1-2-.93,4.2,4.2,0,0,1,0-4,2.25,2.25,0,0,1,2-.94,2.19,2.19,0,0,1,1.34.43v.82a2.84,2.84,0,0,0-1.34-.44,1,1,0,0,0-1,.73,4.7,4.7,0,0,0-.15,1.4,4.84,4.84,0,0,0,.15,1.42,1,1,0,0,0,1,.73,2.58,2.58,0,0,0,1.43-.48v.8A2.27,2.27,0,0,1,345,526.17Zm-5.43-.14v-3.84a.77.77,0,0,0-.64-.87.49.49,0,0,0-.17,0,1.73,1.73,0,0,0-1,.38l0,0,0,.06v4.28h-1.41v-5.6h1.32v.78l.21-.21a2,2,0,0,1,1.41-.66,1.93,1.93,0,0,1,1.26.39,1.25,1.25,0,0,1,.45,1v4.25Zm-8.2.14c-.95,0-1.38-.54-1.38-1.72a1.64,1.64,0,0,1,.47-1.35,4.38,4.38,0,0,1,2.52-.51h.12v-.66c0-.35-.17-.76-1-.76a3.91,3.91,0,0,0-1.69.51v-.84a2.9,2.9,0,0,1,1.73-.53,3.59,3.59,0,0,1,1.7.33,1.39,1.39,0,0,1,.68,1.32v4.11h-1.38v-.79l-.21.19a2.27,2.27,0,0,1-1.55.75ZM333,523.3h0a2.12,2.12,0,0,0-1.16.22.94.94,0,0,0-.34.79c0,.75.43.87.68.87a1.71,1.71,0,0,0,.89-.44l0,0,0-.06v-1.35Zm-6.07,2.83a3.21,3.21,0,0,1-2.46-.82,4.6,4.6,0,0,1-.82-3.08,4.54,4.54,0,0,1,.82-3.06,3.19,3.19,0,0,1,2.45-.82,4.12,4.12,0,0,1,1.47.27v1a3.46,3.46,0,0,0-1.47-.33,1.4,1.4,0,0,0-1.33.75,6.63,6.63,0,0,0,0,4.48,1.4,1.4,0,0,0,1.33.75,3.33,3.33,0,0,0,1.61-.49v1a3,3,0,0,1-1.61.4Zm-9.36-.1v-3.84a.77.77,0,0,0-.64-.87.49.49,0,0,0-.17,0,1.73,1.73,0,0,0-1,.38l0,0,0,.06v4.28h-1.4v-5.61h1.31v.78l.21-.21a2,2,0,0,1,1.41-.66,1.91,1.91,0,0,1,1.26.37,1.25,1.25,0,0,1,.45,1V526Zm-8.2.14c-.94,0-1.38-.54-1.38-1.72a1.64,1.64,0,0,1,.47-1.35,4.38,4.38,0,0,1,2.52-.51h.12v-.66c0-.35-.17-.76-1-.76a3.91,3.91,0,0,0-1.69.51v-.84a2.92,2.92,0,0,1,1.73-.53,3.59,3.59,0,0,1,1.7.33,1.37,1.37,0,0,1,.68,1.32v4.11h-1.38v-.79l-.21.19a2.27,2.27,0,0,1-1.55.75ZM311,523.3h0a2.12,2.12,0,0,0-1.16.22.9.9,0,0,0-.33.79c0,.75.42.87.67.87a1.71,1.71,0,0,0,.89-.44l0,0,0-.06v-1.35ZM305,526v-3.84a.77.77,0,0,0-.64-.87.49.49,0,0,0-.17,0,1.73,1.73,0,0,0-1,.38l0,0,0,.06v4.28h-1.4v-5.6h1.31v.78l.21-.21a2,2,0,0,1,1.41-.66,1.93,1.93,0,0,1,1.26.39,1.25,1.25,0,0,1,.45,1v4.25Zm-6.79,0v-5.57h1.4v5.59Zm.72-6.63h0c-.53,0-.78-.22-.78-.7s.25-.7.78-.7.78.22.78.7-.25.72-.78.72Zm-5.76,6.77c-.93,0-1.37-.54-1.37-1.72a1.64,1.64,0,0,1,.47-1.35,4.38,4.38,0,0,1,2.52-.51H295v-.66c0-.35-.18-.76-1-.76a4,4,0,0,0-1.7.51v-.84a3,3,0,0,1,1.74-.53,3.59,3.59,0,0,1,1.7.33,1.36,1.36,0,0,1,.67,1.32v4.11H295v-.79l-.21.19a2.18,2.18,0,0,1-1.53.75Zm1.62-2.87h0a2.12,2.12,0,0,0-1.16.22.93.93,0,0,0-.34.79c0,.75.43.87.68.87a1.71,1.71,0,0,0,.89-.44l0,0,0-.06v-1.35Z" fill="#fff" fill-rule="evenodd"/><path d="M308.79,507.65a3.29,3.29,0,0,1-1.72-1,4.22,4.22,0,0,1-.65-1h5a4.18,4.18,0,0,1-.64,1,3.31,3.31,0,0,1-1.73,1Zm-18.75-4a1.33,1.33,0,0,0-1.3,1.34v2.5H288V509h.75v2.65A1.33,1.33,0,0,0,290,513h6.36a.63.63,0,0,1-.7.54h-4.94V515h5.52a1.88,1.88,0,0,0,2.09-1.9V513h.88v-1.47h-.92a1.53,1.53,0,0,0,0-.3V509h.92v-1.47h-.92v-2.5a1.31,1.31,0,0,0-1.3-1.34h-7Zm4.44,7.83V509h1.88v2.52Zm0-4v-2.37h1.88v2.37Zm-1.73-2.37v2.37h-2v-2.37Zm0,3.84v2.52h-2V509Zm-5.29-3.84a10.29,10.29,0,0,0-3.27-.87v1.64a8.64,8.64,0,0,1,3.26.82v-1.59Zm0-3.83a10,10,0,0,0-3.27-.86v1.62a8.81,8.81,0,0,1,3.26.83v-1.59ZM286,508.87a6.28,6.28,0,0,1-.69,2.59,3.32,3.32,0,0,1-1.26,1.35V515h0a3.48,3.48,0,0,0,2.34-1.57,7.68,7.68,0,0,0,1.11-4.54Zm1.84-5.84a5.65,5.65,0,0,0,1.66-2.88h1.91a4.58,4.58,0,0,1-.36,1.14h8.19v1.47h-9.08a4.81,4.81,0,0,1-2.33,1.83V503Zm90.52,1.8v1.25a5.35,5.35,0,0,1-.12,1.13h-5.61v1.43h5c-1.38,2.19-4.35,2.81-5,2.93v1.35c1.31-.11,5.05-.54,6.74-3.42l.07.08a11.89,11.89,0,0,0,1.35,1.4,7.59,7.59,0,0,0,4.09,1.94v-1.44a8.24,8.24,0,0,1-2.88-1.67,8.88,8.88,0,0,1-1-1.17h3.92V507.2h-4.64v-2.37h4.65v-1.44h-9a5.52,5.52,0,0,0,.06-.81H374.1a2.94,2.94,0,0,1-1.53,2.7v1.43a3.5,3.5,0,0,0,2.76-1.89Zm-7.09-4.24h13.65v1.58H372V513.4h12.88V515H371.22a1.42,1.42,0,0,1-1.39-1.44V502a1.41,1.41,0,0,1,1.39-1.43Zm-39.88,3.14c-1.74,1.89-4.44,2.54-13,2.54l0-1.43a51.6,51.6,0,0,0,6.22-.28V500h2v4.21a6.6,6.6,0,0,0,3.61-1.95,4,4,0,0,1-.33-1.64h1.84a2.56,2.56,0,0,0,1.59,2.43v1.39a3.37,3.37,0,0,1-1.95-.73Zm-12.59-.66v1.39a3.72,3.72,0,0,0,3.44-3.83h-1.85a2.58,2.58,0,0,1-1.59,2.43Zm12.94,3.78a1.3,1.3,0,0,1,1.27,1.31v5.51a1.3,1.3,0,0,1-1.27,1.31H320.2a1.29,1.29,0,0,1-1.27-1.31v-5.51a1.3,1.3,0,0,1,1.27-1.31Zm-.7,2.32v-.87H320.88v.88Zm0,1.31H320.88v.87H331Zm0,2.18H320.88v.88H331Zm22.28-3.11c0,1.82-.16,3.25-1.3,3.91v1.47c1.62-.35,3.24-1.08,3.32-5.6h0V502.7H367.9v-1.47h-5.82v-1.18H360.2v1.18h-5.62a1.32,1.32,0,0,0-1.3,1.33v1a11.55,11.55,0,0,0-1.31-.22V505c.47.05.91.11,1.3.18V508c-.39.07-.83.13-1.3.18v1.63A11.76,11.76,0,0,0,353.27,509.55ZM366.35,515h-9.19a1.22,1.22,0,0,1-1.19-1.22v-4.22a1.2,1.2,0,0,1,1.19-1.21h9.2a1.21,1.21,0,0,1,1.19,1.21v4.2a1.23,1.23,0,0,1-1.19,1.22Zm-.66-5.22V511h-3v-1.24Zm0,2.54v1.24h-3v-1.24Zm-7.88,1.24v-1.24h3v1.24Zm0-2.54v-1.24h3V511Zm-.66-7.63H361v1.43h-3.23v1.4H361v1.44h-3.89a1.23,1.23,0,0,1-1.19-1.22v-1.83A1.23,1.23,0,0,1,357.15,503.39Zm4.58,3a2.47,2.47,0,0,0,1.46-1.55h-1.46v-1.44h4.63a1.23,1.23,0,0,1,1.19,1.22v1.83a1.21,1.21,0,0,1-1.19,1.21h-1.73V506.2h1.08v-1.4h-.79a3.48,3.48,0,0,1-3.19,2.83Zm-23.05-.57h-1.33v2.63h1.33Zm9.86-2.07h-1.63v7.7h1.63v-7.69Zm-3.52,0h-1.64v7.7H345v-7.69Zm-1.62-1.47H345v-2.08h1.89v2.08h2.34a1.33,1.33,0,0,1,1.3,1.34v8a1.32,1.32,0,0,1-1.3,1.34h-2.34V515H345v-2.08h-2.34a1.32,1.32,0,0,1-1.3-1.34v-8a1.33,1.33,0,0,1,1.3-1.34Zm-8,7.31v-8a1.3,1.3,0,0,1,1.28-1.3h2.59a1.28,1.28,0,0,1,1.26,1.26v11.56a1.82,1.82,0,0,1-2,1.86H337.1v-1.44h.82c.35,0,.74-.07.74-.79v-2.9h-1.32v0h0c-.12,4.08-1.62,4.75-3.12,5.08v-1.39c1.14-.66,1.22-2.13,1.22-4Zm1.91-7.83v2.61h1.32v-2.62Zm57.42,5.67h-2.43v1.43h2.41a5.39,5.39,0,0,1-2.41,4.85V515c2.46-.7,4.23-2.86,4.31-6.13h2v4.87A1.24,1.24,0,0,0,399.9,515h2.85v-1.44h-2.18v-4.68H403v-1.43h-8.24Zm7.33-1.2h-9v-1.44h9Zm-.92-3.73v1.58H403v-1.76A1.21,1.21,0,0,0,401.8,501h-3.19v-.87h-1.9V501h-3.19a1.21,1.21,0,0,0-1.19,1.25h0v1.76h1.84v-1.58Zm-11.25,4.2v3.43h-1.11v-3.42Zm.21,4.9h.46a1.24,1.24,0,0,0,1.22-1.26v-3.23a1.22,1.22,0,0,0-.87-1.21,1.26,1.26,0,0,0,.87-1.22v-3.09a1.24,1.24,0,0,0-1.22-1.26h-3.66V515h1.89v-3.4h1.31Zm-.21-9.81v3.43h-1.11v-3.42Zm-80.11-1.63h-2v1.17h-6.46v1.47h6.46v1.43h-4.93a1.29,1.29,0,0,0-1.27,1.3V515h2v-9.37h1a7.61,7.61,0,0,0,1.43,1.76c.11.09.22.18.34.26h-1.95v1.47h3.4v1.42h-3.4V512h3.4v3h2v-3h3.44v-1.47h-3.44v-1.42h3.44v-1.47h-1.79a2.91,2.91,0,0,0,.33-.26,7.6,7.6,0,0,0,1.44-1.76h.82v7.15c0,.59-.28.64-.58.64h-.83V515h2c1,0,1.4-.57,1.4-1.57v-1.7h0v-6.2a1.3,1.3,0,0,0-1.28-1.31h-4.93v-1.42h6.46V501.3h-6.46Z" fill="#fff" fill-rule="evenodd"/><path d="M254.51,496c.79.19.65,1.48.31,2.06s-.89.15-1.08-.62a2.06,2.06,0,0,0-.71-1.11,1.67,1.67,0,0,1,1.49-.31Zm13.2,24.16c.6-1.27,1.86-2.05,3.87-1a2.21,2.21,0,0,0,3.06-.5,6.07,6.07,0,0,1-.31,1.84,3.05,3.05,0,0,1-3.31,0,1.9,1.9,0,0,0-2.6.21c-.63.84-1.3.67-.7-.6Zm-.16-1.09c-.18-.54-.72-.31-.89-.72s-.33-.54-.75-.37-.77-.86-1.45,0c-.39.52-.4.52-.85.59a.41.41,0,0,0-.39.42.36.36,0,0,0,0,.11A2.21,2.21,0,0,0,267.55,519.1Zm4.44-6.19c1.2.69,1.92-.33,2.67-1.13.4.81.35,3.49-.62,2.94-.78-.45-1.17-.9-2.19-.24-1.78,1.16-4.11-.5-4.1-1.12,1.29-1.51,3-1.17,4.23-.45Zm-27.26-.68c-.31-1.37-.14-3.26.93-4,.21-.14,1.86-.76,1.86.09a2.77,2.77,0,0,1-1.24,2.16,9.26,9.26,0,0,0-.85.45c.27.27.59.94.31,1.35-.45.68-.85.64-1-.06Zm26.93-5.63a1,1,0,0,1-1.24.31c-.55-.23-1.08-.48-1.6-.76a1.72,1.72,0,0,0,.58,1.9c.68.79.76,1.05,0,2.11-.5.69-.34,1.15.91.66s1.27-.69,2.35.5c.62.69,1.24.06,1-.62s-.77-1.33,0-1.78c1.69-1,1.26-1.29,0-1.43-.72-.08-.7-.29-.74-.71-.16-1.74-.66-1.31-1.33-.17Zm-19.08-7.28c2,.93-1-2.58-2-3-1.13.1-1.12,1.06-.31,1.64A17,17,0,0,0,252.58,499.32Zm1.12,31.05c-1.75-.83-3-.33-3.4.22s-1.66.34-1.24-1a2,2,0,0,1,3.07-1.31,1.55,1.55,0,0,0-1.61,1A2.39,2.39,0,0,1,253.7,530.37ZM249,527.53c-.4,1.63,1.45-.22,1.74-1.66a4.22,4.22,0,0,0-.37-3,4,4,0,0,1-.07-3.06,4.59,4.59,0,0,0-1.27,4A3.83,3.83,0,0,1,249,527.53Zm24.31-10c2.1,1.4,2.36-1.8,0-2.28s-2.33,2.53-5.6.34c-1.7-1.14-3.75.42-4,2a2.06,2.06,0,0,1,3.15-.58c1.52,1.19,2.58,1.29,3.81.48C272.16,516.52,272.63,517.09,273.32,517.55Zm-32.71-11.72c-.82,1.3-.41,3.44.82,4,.72.3,1.37.77.46,1.07-2.74.38-1.88,4.29,1.42,1.12,2-2.17.28-5.94-2.7-6.15Zm16.95-9.69c2.92-.06,1.34,1.28-.09,2.4-2,1.24-2.09,1.26-1.14-.54a11,11,0,0,1,1.24-1.86Zm5.14,34c-1.13.86.64,1,1.3.43,1.14-1.17.93-2.46.06-3.79C263.81,526.44,264.37,529.25,262.7,530.18Zm-2.35-4.2a.6.6,0,0,0-.4-.92c-1-.2-.81-1.3-.07-1.37.42-.05.65-.28.29-.64a.87.87,0,0,1,.08-1.48,1,1,0,0,1,1.35.42c.31.64.9.8,1.28.14,1.35-2.36,3.84.27,1.72,1.16-1,.4-.83,1-.06,1a1,1,0,0,1,1,1,1,1,0,0,1-.13.52,1.18,1.18,0,0,1-1.66.4c-1.27-.64-1.41,0-1.8.46-.71.8-1.95,0-1.64-.71Zm2.18-2.46c-1.58-.07-1.77,1.94,0,1.68C263.18,525.1,263.43,524.15,262.53,523.52Zm-6.76,2.71a3.65,3.65,0,0,1,3.54,3.14c.14.65.51.85.66.28a2.41,2.41,0,0,1,2.2-1.66,2.67,2.67,0,0,1-2,3C257.2,531.42,255.71,528.79,255.77,526.23Zm3.64-26.71a2.21,2.21,0,0,0-2.31,1.85,3.11,3.11,0,0,1,2.09.12,5.18,5.18,0,0,0,5.94,3.56c-.18-.59-.38-1.11-.46-1.48-2.48.2-2-3.08,0-1.14.6-.68,1-4.43-.36-2.84-.95,1.1-2.16-.4-1-1s1.57-.92,1.84-2.24C262.82,496.1,260.52,496.45,259.41,499.52Zm-10.58,8.62a2.21,2.21,0,0,0,1.94,3.88,3.12,3.12,0,0,0,1.39-.82c.28-.29.62-.93.14-1.07s-.62.88-1,1.19-.93.43-.76-.29C251,509.18,248.56,509.41,248.83,508.14Zm-2.39,4.26c2.79,2.21,4.19,3.27,4.69,8.23a19.91,19.91,0,0,0,2.65,8.45c.93,1.38,3,3.42,1.77,0a17.87,17.87,0,0,1-1.17-4.71c-.29-4.43,2.7,1,3.73,2s2.14,1.14.44-2.25c-1.49-3-2.61-5.15.24-8,2.25-2.25,2.13-3.77-1.07-1.91C251.58,517.78,251.68,511.14,246.44,512.4Zm8.61,1c-.4,2.36-3.92.6-2.1-2.27A2.06,2.06,0,0,1,255.05,513.39Zm-15,3.6c.31,1.65.85,1.16,1.1-.14.17-.9.87-.11,1.2.17,1.7,1.42,1.68-2.31,2.6-.74,1.66,2.82,5.13.49,3-1.9a1.33,1.33,0,0,1-2.54.07c-1.16-2.55-1.76-1.38-2.17-.29-.28.77-.52,1.9-1.58.44-.81-1.12-1.91.61-1.6,2.39Zm4.55,2.66c-1.66-.25-1.33-1-.13-1.25a13.41,13.41,0,0,1,4.24-.13c1.35.18,1.3.62.43.56-2.71-.2-4,.68-1.8.93,1.11.13,2.29.86.14,1.36-1.6.39-4.86.67-6.53-.12-2-.94,0-2.67,2-2.52-1.17.18-2,1.56.4,1.71,1.79.11,2.87-.29,1.21-.55Zm10.95-15.45a4.77,4.77,0,0,1,3.44,4.67c-2.79-.88-4.85.07-5.63,1.54a5.61,5.61,0,0,1,4.29.18c-1.65,1.1-1.57,1.72-1.55,3.61,2.66-4.76,9.42-1.09,1.71,5.94a6,6,0,0,0,2.12.85c1.08.29,2,0,2.7-2a7.92,7.92,0,0,0,0-5.9c.34-.4,2.36-.52,2.29,1.67,1.69-1.6.34-3.14-1.12-3.59a6.3,6.3,0,0,1,4,1.18,4.94,4.94,0,0,0-.07-1.15,4,4,0,0,0-4-1.39c1.61-.86,3.11-.7,4.95,0a13.45,13.45,0,0,0-.81-1.43c-2.33-.93-3.45-.7-5.06.21.53-1.47,2.05-2.2,4-1.88-2.13-1.33-4.33-.86-5.52,1,.15-2-2.37-3.74-3.95-4a4.87,4.87,0,0,0-1.76.45Zm-2.83.44c-.45.81-1.62-.54-2.4.52-.31.44,0,.65-.74.93-1.14.44-3.34-1.34-4.49,1.63,3.44-2.74,6.06,2.89,8.5.78a2.42,2.42,0,0,1,1.76-.72c1.73.22,1.86-2.25-.17-2.15.25-1.74-2-1.85-2.48-1Zm3.87-2.53c-.66,1.28-3.52,2.06-3.71-.55S256.63,499.14,256.6,502.11Zm-6.8,2.16c-.5-1.06-.1-1.47.34-1.65a8.43,8.43,0,0,1,2.17-.66C253.18,501.85,251.32,503.48,249.8,504.27Zm-.29-4.35a4.89,4.89,0,0,1,2,.31c.68.26.93.59-.2.89S249.58,501.25,249.51,499.92Z" fill="#fff" fill-rule="evenodd"/></g></svg>