<?xml version="1.0" encoding="utf-8"?>
<!-- Generator: Adobe Illustrator 25.4.1, SVG Export Plug-In . SVG Version: 6.00 Build 0)  -->
<svg version="1.1" id="图层_1" xmlns="http://www.w3.org/2000/svg" xmlns:xlink="http://www.w3.org/1999/xlink" x="0px" y="0px"
	 viewBox="0 0 2529.2 1488.6" enable-background="new 0 0 2529.2 1488.6" xml:space="preserve">
<g>
	<defs>
		<rect id="SVGID_1_" x="361.2" width="2168" height="1518"/>
	</defs>
	<clipPath id="SVGID_00000114772579176874388610000005941305109756701312_">
		<use xlink:href="#SVGID_1_"  overflow="visible"/>
	</clipPath>
	<g transform="translate(-1120 -529)" clip-path="url(#SVGID_00000114772579176874388610000005941305109756701312_)">
		<path fill-rule="evenodd" clip-rule="evenodd" fill="#3A312E" d="M2713.9,666c38.8-0.1,72,5.9,100.4,17.3l1.3,0.7l-2.6,9.7
			c23.7,7.7,104,46.2,138.7,158.7c45.9,142.9,41.2,344.1,69.4,516.5c50,306.5,180.8,410.1,356.1,661.1l-1308-11.6
			c65.6-217.6,202.1-424,274.6-698.3C2416.3,1045.8,2403.2,667.2,2713.9,666z"/>
		<path fill-rule="evenodd" clip-rule="evenodd" fill="#C49A6C" d="M2624.7,1131c-0.5,30.4,2.4,81.3-2.9,89.2
			c-10.5,15.4-58.2,15-94.6,24.7l189.3,102.2l158.7-68.1c-38.1-37.2-123.5-7.7-112.9-123.2L2624.7,1131z"/>
		<path fill-rule="evenodd" clip-rule="evenodd" fill="#E0BB95" d="M2799.9,748c-56.6,87.6-226.8,94.7-242.7,236.7l-17.5-29.1
			c-86.4,38.2-23.3,129.6,31.1,117.4c34.6,68.5,102.6,127.2,182.5,127.1c102.3-0.1,169.4-136.8,169.9-232.8
			C2923.8,840.8,2843.9,812.3,2799.9,748z"/>
		<path fill-rule="evenodd" clip-rule="evenodd" fill="#404040" d="M2674.2,950.5c0-8.6,6.9-15.5,15.5-15.5l0,0
			c8.6,0,15.5,6.9,15.5,15.5v17c0,8.6-6.9,15.5-15.5,15.5l0,0c-8.6,0-15.5-6.9-15.5-15.5V950.5z"/>
		<path fill-rule="evenodd" clip-rule="evenodd" fill="#404040" d="M2823.2,946.5c0-8.6,6.9-15.5,15.5-15.5l0,0
			c8.6,0,15.5,6.9,15.5,15.5v17c0,8.6-6.9,15.5-15.5,15.5l0,0c-8.6,0-15.5-6.9-15.5-15.5V946.5z"/>
		<path fill-rule="evenodd" clip-rule="evenodd" fill="#4C1D1C" d="M2722.3,1081.3c-9.1,3.3,12.9,43.8,43.5,41.6
			c22.6-1.6,44.1-33.9,35.5-37.2c-7.3-2.9-21.6,15-34.8,15.3C2738.1,1101.7,2731,1078.1,2722.3,1081.3z"/>
		<path fill-rule="evenodd" clip-rule="evenodd" fill="#C49A6C" d="M2763.2,950L2763.2,950l34.7,63.7l-21.4,20.3l31.7-13.8
			L2763.2,950z"/>
		<path fill-rule="evenodd" clip-rule="evenodd" fill="#C49A6C" d="M3439.5,1345.1c-11.7-2.9-34.9,48.9-39.3,77
			c1.5,40.7,2.9,58.1,20.4,98.8l68.4,10.2l77.2-114.7l-113.6-20.3C3431.5,1384.1,3451.1,1348,3439.5,1345.1z"/>
		
			<linearGradient id="SVGID_00000029016418317792572180000013088724705412881549_" gradientUnits="userSpaceOnUse" x1="3937.5664" y1="478.293" x2="4647.5264" y2="353.1131" gradientTransform="matrix(1 0 0 -1 -1120 2047)">
			<stop  offset="0" style="stop-color:#EE980A"/>
			<stop  offset="0.68" style="stop-color:#F7B548"/>
			<stop  offset="1" style="stop-color:#F7B548"/>
		</linearGradient>
		<path fill-rule="evenodd" clip-rule="evenodd" fill="url(#SVGID_00000029016418317792572180000013088724705412881549_)" d="
			M2869.2,1276c151.8,18.4,158.4,298.2,322.5,470.1c106.8-76.7,164.9-159.9,231-251.8l62.5,34.9c-6.5,90.2-165,378.4-279.9,402.7
			c-96.6,20.5-202.4-118.4-276-198.4L2869.2,1276z"/>
		<path fill-rule="evenodd" clip-rule="evenodd" fill="#F7B548" d="M2551.6,1239l312.5,33.5c98,27.6,139.1,205.2,124.1,324
			c-13.3,105.5-53,176.2-21.3,318.2l-552.7,11.6c19.6-69,24.6-135.2-15.5-246.4c-65.6,79.5-205.4,237.7-182.3,349.2l-170.7,1.9
			c-11-207.3,172.1-426.7,253.1-547.1c79.8-118.6,114.3-186.9,164.6-217C2493.8,1248.6,2486.6,1250,2551.6,1239z"/>
		<path fill-rule="evenodd" clip-rule="evenodd" fill="#2B88D8" d="M2357.2,2038l50.5-110.6c184.3-24.7,373-21.8,561.6-17.5
			l51.9,117.9L2357.2,2038z"/>
		<path fill-rule="evenodd" clip-rule="evenodd" fill="#F2F2F2" d="M3616.1,1178l32.1,19.4L3520,1512l-85.9-6.5l-21.9-11.7
			l125.3-315.9H3616.1z"/>
		<path fill-rule="evenodd" clip-rule="evenodd" fill="#D9D9D9" d="M3564.7,1198h84.4l-128.1,314l-85.9-6.5L3564.7,1198z"/>
		<path fill-rule="evenodd" clip-rule="evenodd" fill="#E0BB95" d="M3571.9,1345.2c13.5-23.7-43.9-52.1-15.9-62.5
			c27.9-10.4,63.9,89.8,44.8,165.6c-29.9,33.9-77.1,59.1-115.7,88.6c-3.4-16.5-16.9-28.6-10.1-49.4c6.8-20.8,46.3-28.8,46.3-39.2
			l-46.3-23.2C3468.3,1314.2,3549.7,1344.2,3571.9,1345.2z"/>
		<path fill-rule="evenodd" clip-rule="evenodd" fill="#E0BB95" d="M2476.8,1717.2l22.3,311.7l-168.3,5.2l-56.7-340L2476.8,1717.2z"
			/>
		<path fill-rule="evenodd" clip-rule="evenodd" fill="#E0BB95" d="M1614.2,1712.1l-18,334.9l-115-2.8l27.1-354.2L1614.2,1712.1z"/>
		
			<linearGradient id="SVGID_00000176761001447306472380000010537854510848009372_" gradientUnits="userSpaceOnUse" x1="2578.8271" y1="600.1955" x2="2994.707" y2="526.8554" gradientTransform="matrix(1 0 0 -1 -1120 2047)">
			<stop  offset="0" style="stop-color:#2B88D8"/>
			<stop  offset="0.19" style="stop-color:#2B88D8"/>
			<stop  offset="0.68" style="stop-color:#257CC7"/>
			<stop  offset="1" style="stop-color:#257CC7"/>
		</linearGradient>
		<path fill-rule="evenodd" clip-rule="evenodd" fill="url(#SVGID_00000176761001447306472380000010537854510848009372_)" d="
			M1834.2,1252c-238.8,8.6-327.8,336.6-341,458.5l204.9,39.5L1834.2,1252z"/>
		
			<linearGradient id="SVGID_00000005229510279857250590000003168733336651416723_" gradientUnits="userSpaceOnUse" x1="2624.2527" y1="462.1185" x2="3513.6526" y2="305.2984" gradientTransform="matrix(1 0 0 -1 -1120 2047)">
			<stop  offset="0" style="stop-color:#2B88D8"/>
			<stop  offset="0.68" style="stop-color:#2B88D8"/>
			<stop  offset="1" style="stop-color:#1F68A6"/>
		</linearGradient>
		<path fill-rule="evenodd" clip-rule="evenodd" fill="url(#SVGID_00000005229510279857250590000003168733336651416723_)" d="
			M1567.2,2045c20.9-271.2,55-636.6,166.7-752c183.3-124,494.9-51.7,592.9,59.6c58,371.6-93.3,429.2-53.2,687.5L1567.2,2045z"/>
		<path fill-rule="evenodd" clip-rule="evenodd" fill="#2B88D8" d="M2487.2,1724.5c-40.7-161.7-48.7-473.2-426.6-495.5l-34.4,297.7
			c94.6-11.5,166.8-26.4,263.2,244.3L2487.2,1724.5z"/>
		<path fill-rule="evenodd" clip-rule="evenodd" fill="#C49A6C" d="M1877,1191.6l-6.9,70.3c57.1,94.8,164,68,202.3,6.9l13.7-157.7
			L1877,1191.6z"/>
		<path fill-rule="evenodd" clip-rule="evenodd" fill="#3A312E" d="M1714,692c28.1,59.3,92.2,6.3,151.2,19l-22.3,95
			C1802.2,803.7,1703.1,815.2,1714,692z"/>
		<path fill-rule="evenodd" clip-rule="evenodd" fill="#E0BB95" d="M1844.1,739c-54.5,80.2-210.4,440.6,79.1,477.9
			c128.4,12,181.2-73.9,220.2-123.8c55,30.9,89.4-12,98.1-56.7c7.4-43.5-47-149-70.5-223.5L1844.1,739z"/>
		<path fill-rule="evenodd" clip-rule="evenodd" fill="#3A312E" d="M1834.4,529c10.9,194.3,469-3.4,414.5,309.5
			c29.2,48.2,29.2,94.6-15.5,149.6l-25.8-24.1l-43,61.9c-31.5-22.9-49.3-39-51.6-94.6c-31-8.6-58.5-6.9-79.1-46.4l56.8-32.7
			C1917.5,833.4,1642.9,714.7,1834.4,529z"/>
		<path fill-rule="evenodd" clip-rule="evenodd" fill="#404040" d="M1842.2,914.3c2.1-9.9,11.9-16.2,21.8-14l0,0
			c9.9,2.1,16.2,11.9,14,21.8l-4.3,19.7c-2.1,9.9-11.9,16.2-21.8,14l0,0c-9.9-2.1-16.2-11.9-14-21.8L1842.2,914.3z"/>
		<path fill-rule="evenodd" clip-rule="evenodd" fill="#404040" d="M2015.8,954.7c2.1-9.9,11.9-16.2,21.8-14l0,0
			c9.9,2.1,16.2,11.9,14,21.8l-4.3,19.7c-2.1,9.9-11.9,16.2-21.8,14l0,0c-9.9-2.1-16.2-11.9-14-21.8L2015.8,954.7z"/>
		<path fill-rule="evenodd" clip-rule="evenodd" fill="#4C1D1C" d="M1884.7,1093c-8.4,8.1,17.9,38,47.7,38s54.8-34.6,42.5-44.1
			c-6.9-5.3-16.2,13.6-43.4,14.7C1908.8,1102.5,1893.2,1084.9,1884.7,1093z"/>
		<path fill-rule="evenodd" clip-rule="evenodd" fill="#C49A6C" d="M1910.9,940l-64.5,59.3l74.8,50.7l-54.2-5.2l-31.8-49L1910.9,940
			z"/>
		<g>
			<defs>
				
					<rect id="SVGID_00000046319268507958936240000010079465497396269701_" x="1694" y="1529.3" transform="matrix(9.951562e-02 -0.995 0.995 9.951562e-02 -11.9725 3375.4504)" width="330" height="330"/>
			</defs>
			<clipPath id="SVGID_00000090268394990510532680000000616549850903107202_">
				<use xlink:href="#SVGID_00000046319268507958936240000010079465497396269701_"  overflow="visible"/>
			</clipPath>
			<g clip-path="url(#SVGID_00000090268394990510532680000000616549850903107202_)">
				<g>
					<defs>
						
							<rect id="SVGID_00000078030389574913569610000005517364035825847460_" x="1694" y="1529.3" transform="matrix(9.951562e-02 -0.995 0.995 9.951562e-02 -11.9725 3375.4504)" width="330" height="330"/>
					</defs>
					<clipPath id="SVGID_00000083075293294735101840000000875154329372656052_">
						<use xlink:href="#SVGID_00000078030389574913569610000005517364035825847460_"  overflow="visible"/>
					</clipPath>
					<g clip-path="url(#SVGID_00000083075293294735101840000000875154329372656052_)">
						<g>
							<defs>
								
									<rect id="SVGID_00000018923265970204314530000016031013304401109672_" x="1694" y="1529.3" transform="matrix(9.951562e-02 -0.995 0.995 9.951562e-02 -11.9725 3375.4504)" width="330" height="330"/>
							</defs>
							<clipPath id="SVGID_00000090293285740433486520000014710504518482493330_">
								<use xlink:href="#SVGID_00000018923265970204314530000016031013304401109672_"  overflow="visible"/>
							</clipPath>
							<g clip-path="url(#SVGID_00000090293285740433486520000014710504518482493330_)">
								<path fill="#9AECFC" d="M1739.3,1802.6c-2.6,2.2-5.8,2.5-8.7,0.9c-2.9-1.7-4.4-4.6-4.1-7.7c0.3-3.1,2.7-6,5.5-6.7
									c3.2-1.1,6.2-0.1,8.4,2.6C1743.2,1794.7,1742.7,1799.8,1739.3,1802.6z M2003.3,1601.3l-30.5,24.9l-21.3-8l-3.3-22.1
									l30.5-24.9c-15.8-7.8-34.7-5.9-48.8,4.4c-14.2,10.7-21.1,27.9-18.4,45.5l-191.9,157c-6.7,5.2-10,13.8-8.8,22.3
									c1.2,8.4,7.1,15.6,15.1,18.4c8,2.9,16.8,1.3,23.6-4.2l191.9-157c16.7,6.1,35,2.8,48.2-9
									C2002.5,1636.8,2008.2,1618.4,2003.3,1601.3z"/>
								<path fill="#9AECFC" d="M1981.6,1804.4l-79.4-97.1l-39.1,32l77,94.1l2.8,3.4l0.4-0.3c9.2,8.2,23,8.2,32.4,0.5
									C1985.1,1828.9,1987.5,1815.3,1981.6,1804.4L1981.6,1804.4z"/>
								<path fill="#9AECFC" d="M1781.7,1589.2l0.4-0.3l-7.2-17.3l-27.1-26.5l-13.2,10.8l20.7,31.8l15.5,10.5l0.4-0.3l58.8,71.9
									l10.5-8.6L1781.7,1589.2z"/>
							</g>
						</g>
					</g>
				</g>
			</g>
		</g>
	</g>
</g>
</svg>
