<svg id="e89f92ed-df82-40b2-a557-2b3991e85482" data-name="图层 1" xmlns="http://www.w3.org/2000/svg" xmlns:xlink="http://www.w3.org/1999/xlink" viewBox="0 0 2628 2090"><defs><clipPath id="b69d3df3-8b4a-4e99-806a-441c76e47f22"><rect width="2628" height="2090" style="fill:none"/></clipPath></defs><g style="clip-path:url(#b69d3df3-8b4a-4e99-806a-441c76e47f22)"><path d="M2021.87,1200,1637,1323,1774.45,2089l513.17-4.73L2393,1304Z" style="fill:#e5d9cd;fill-rule:evenodd"/><path d="M1533,809.24c18.56-233.27-35.61-303.34,74.33-440.62S2079.5,146.87,2166.82,0c46.71,97.92,301.06,175.67,297.14,815Z" style="fill:#3d1d12;fill-rule:evenodd"/><path d="M1454,815c0-55.78,38.73-101,86.5-101s86.5,45.22,86.5,101-38.73,101-86.5,101S1454,870.78,1454,815Z" style="fill:#e69458;fill-rule:evenodd"/><path d="M2370,815c0-55.78,38.73-101,86.5-101s86.5,45.22,86.5,101-38.73,101-86.5,101S2370,870.78,2370,815Z" style="fill:#e69458;fill-rule:evenodd"/><path d="M1540.43,824.12c-5.52-119.7,43.13-141.15,85.57-192.85-30.94-179.52,207.88-61.25,386.16-70.86,224.41,1.92,366-74,351.94,73.75,37.94,53.8,90.06,4.88,99.9,190,0,269.45-206.75,487.88-461.79,487.88S1540.43,1093.57,1540.43,824.12Z" style="fill:#f9c299;fill-rule:evenodd"/><path d="M1721.42,708c16.58-9.51,63.57-23.91,82.63-25.32s29.53,9,31.74,16.85-4.25,30.26-18.48,30c-19.92-.33-64.42,13-81.46,25.52-10.76,7.89-27.64-3.44-31.28-15.33S1709.08,715.62,1721.42,708Z" style="fill:#3d1d12;fill-rule:evenodd"/><path d="M2195.76,678.33c19,1.9,65.61,17.52,81.94,27.45s18.77,24.53,16,32.18-21.07,22.14-32.51,13.68c-16-11.86-60-26.89-81.11-26.62-13.34.16-20.48-18.87-16.53-30.67S2181.27,677.38,2195.76,678.33Z" style="fill:#3d1d12;fill-rule:evenodd"/><path d="M1832,820c0-20.43,16.34-37,36.5-37s36.5,16.57,36.5,37-16.34,37-36.5,37S1832,840.43,1832,820Z" style="fill:#3d1d12;fill-rule:evenodd"/><path d="M2102,820c0-20.43,16.34-37,36.5-37s36.5,16.57,36.5,37-16.34,37-36.5,37S2102,840.43,2102,820Z" style="fill:#3d1d12;fill-rule:evenodd"/><path d="M2127.3,953.83c113.71,1,210.7,40,258.09,103.74l9.72,15.19-13.81,24c-82.93,129.64-223.37,214.87-382.66,214.87-95.58,0-184.37-30.68-258-83.23l-27.92-22.05,4.33-22c27-99.64,147.29-191.08,304.31-220.87A542.68,542.68,0,0,1,2127.3,953.83Z" style="fill:#d4b392;fill-rule:evenodd"/><path d="M2212.34,1003.88c-29.28,106.47-139.32,169-245.79,139.75-3.75-1-7.48-2.17-11.16-3.42l11.61-34.27a163.74,163.74,0,0,0,207.64-102.51c1-3,2-6.07,2.81-9.14Z" style="fill:#6b331f;fill-rule:evenodd"/><path d="M1777.25,1246,1704,1291.83,1946.64,1411,1997,1305.58Z" style="fill:#f2f2f2;fill-rule:evenodd"/><path d="M2252.5,1251l83.5,45.83L2059.41,1416,2002,1310.58Z" style="fill:#f2f2f2;fill-rule:evenodd"/><path d="M1936,1410l66-114,66,114Z" style="fill:#5c80a4;fill-rule:evenodd"/><rect x="1945" y="1410" width="114" height="679" style="fill:#5c80a4"/><path d="M1678.36,1287.57l44.16,114.49-155.35,563.3c-35.94,49.26-73,84.78-110.83,111.72L1436.63,2090H1057l-21-55.94C1459.26,2093.59,1462.84,1333.37,1678.36,1287.57ZM2345.44,1265c128.29,28,235.53,431.28,275.68,761.75L2628,2090H2400.82l-105.77-710.51Z" style="fill:#3c3a3f;fill-rule:evenodd"/><path d="M2295.84,1263.9l67.75,27.51c59.93,216.66,90.55,433.31,111.64,655.77L2487,2089H2126.79l12.7-339.06Zm-572.65-2.9,137.38,486,11.26,342H1555l10.56-144.72c18.53-222.46,45.43-439.11,98.1-655.77Z" style="fill:#514f52;fill-rule:evenodd"/><path d="M0,1511.2c0-46.79,38-89.29,84.76-89.29L895.24,1399A84.74,84.74,0,0,1,980,1483.71v520.58A84.74,84.74,0,0,1,895.24,2089H84.76A84.74,84.74,0,0,1,0,2004.29Z" style="fill:#d9d9d9;fill-rule:evenodd"/><path d="M416,1744c0-35.35,28.43-64,63.5-64s63.5,28.65,63.5,64-28.43,64-63.5,64S416,1779.35,416,1744Z" style="fill:#fff;fill-rule:evenodd"/><path d="M1259.5,2089h-514a33.5,33.5,0,0,1-33.5-33.5V2022h581v33.5A33.5,33.5,0,0,1,1259.5,2089Z" style="fill:#d9d9d9;fill-rule:evenodd"/><path d="M1255.5,2073h-258a17.5,17.5,0,0,1-17.5-17.5V2038h293v17.5A17.49,17.49,0,0,1,1255.5,2073Z" style="fill:#bfbfbf;fill-rule:evenodd"/><path d="M2259.83,1235,2364,1262.48l-10.42,270.17L2239,1518.92l99,27.47L2114,1899l5.21-146.54Z" style="fill:#6c6b6f;fill-rule:evenodd"/><path d="M1751.67,1241,1660,1268.52l9.17,270.58L1770,1525.34l-87.08,27.52L1880,1906l-4.58-146.76Z" style="fill:#6c6b6f;fill-rule:evenodd"/><path d="M2166.64,0c43.73,91.82,269.65,165.92,294.5,701.76l.27,13.89,28.32,6.68c31,15.3,52.76,51.13,52.76,92.9,0,55.68-38.68,100.82-86.38,100.82l-1.13-.27-1,6.82c-24.57,126.87-95.81,235.78-193.94,305.83l-34,19.46-7.49,4.94-2.67,1.32,9.71,2.72,26.54-6.32,3,1.66,4.72-17.34,104.24,27.5-.37,9.49,5.54,2.22c117.59,68.66,214.17,442.64,251.8,752.63L2628,2090H2400.9l-.24-1.62H2127l.12-3.25-68,.62v2.63h-57V133.19L2020.56,123C2085.35,85.73,2139.4,45.91,2166.64,0Z" style="fill:#3d1601;fill-opacity:0.1294119954109192;fill-rule:evenodd"/><path d="M1952,912a53,53,0,1,1,53,53A53,53,0,0,1,1952,912Z" style="fill:#f9c299;fill-rule:evenodd"/></g></svg>