<svg id="图层_1" data-name="图层 1" xmlns="http://www.w3.org/2000/svg" xmlns:xlink="http://www.w3.org/1999/xlink" width="1167" height="962" viewBox="0 0 1167 962"><defs><clipPath id="clip-path"><rect width="1167" height="962" fill="none"/></clipPath><linearGradient id="未命名的渐变" x1="2524.17" y1="-45.65" x2="2701.82" y2="-353.35" gradientTransform="matrix(1, 0, 0, -1, -2048, 53)" gradientUnits="userSpaceOnUse"><stop offset="0" stop-color="#efff9d"/><stop offset="1" stop-color="#7cf6fc" stop-opacity="0.8"/></linearGradient><linearGradient id="未命名的渐变_2" x1="2162" y1="-453.29" x2="2250.68" y2="-606.89" gradientTransform="matrix(1, 0, 0, -1, -2048, 53)" gradientUnits="userSpaceOnUse"><stop offset="0" stop-color="#efff9d" stop-opacity="0.85"/><stop offset="1" stop-color="#7cf6fc" stop-opacity="0.85"/></linearGradient><linearGradient id="未命名的渐变_3" x1="2338" y1="-453.29" x2="2426.68" y2="-606.89" xlink:href="#未命名的渐变_2"/><linearGradient id="未命名的渐变_4" x1="2516.92" y1="-554.42" x2="2551.08" y2="-613.58" xlink:href="#未命名的渐变_2"/></defs><g clip-path="url(#clip-path)"><path d="M566,0a87,87,0,0,1,87,87v26H627.19V85.3a62.15,62.15,0,1,0-124.3,0V113H479V87A87,87,0,0,1,566,0Z" fill="#03cd98" fill-rule="evenodd"/><path d="M565.5,188.24a30.49,30.49,0,0,0-21.59,52.06l4.24,3.49-13.18,56H596l-13.19-56,4.24-3.49a30.48,30.48,0,0,0-21.59-52.06ZM463.25,123h203.5A29.23,29.23,0,0,1,696,152.21V352.79A29.23,29.23,0,0,1,666.75,382H463.25A29.23,29.23,0,0,1,434,352.79V152.21A29.23,29.23,0,0,1,463.25,123Z" fill-rule="evenodd" fill="url(#未命名的渐变)"/><path d="M0,480.8A43.8,43.8,0,0,1,43.8,437H822.2A43.8,43.8,0,0,1,866,480.8V685.2A43.8,43.8,0,0,1,822.2,729H43.8A43.8,43.8,0,0,1,0,685.2Z" fill-opacity="0.16" fill-rule="evenodd"/><path d="M144.12,519H172l-5.7,54.61L221,558.25l4,26.17-52.4,4.27,33.89,44.94L182,647l-24.21-49.78L135.86,647l-25.35-13.37,33.32-44.94L92,584.42l4-26.17,54.11,15.36Z" fill-rule="evenodd" fill="url(#未命名的渐变_2)"/><path d="M320.12,519H348l-5.7,54.61L397,558.25l4,26.17-52.4,4.27,33.89,44.94L358,647l-24.21-49.78L311.86,647l-25.35-13.37,33.32-44.94L268,584.42l4-26.17,54.11,15.36Z" fill-rule="evenodd" fill="url(#未命名的渐变_3)"/><rect x="435" y="627" width="102" height="20" fill="url(#未命名的渐变_4)"/><path d="M864,218l303,57.82c-14.53,360.44,4.15,485.72-303,686.18Z" fill="#00dec9" fill-rule="evenodd"/><path d="M864,218,561,275.82C575.53,636.26,556.85,761.54,864,962Z" fill="#00f6df" fill-rule="evenodd"/></g></svg>