<svg id="图层_1" data-name="图层 1" xmlns="http://www.w3.org/2000/svg" xmlns:xlink="http://www.w3.org/1999/xlink" width="1193" height="951" viewBox="0 0 1193 951"><defs><clipPath id="clip-path"><rect width="1193" height="951" fill="none"/></clipPath><linearGradient id="未命名的渐变" x1="2799.19" y1="-36.87" x2="3261.81" y2="-838.13" gradientTransform="matrix(1, 0, 0, -1, -2121, 90)" gradientUnits="userSpaceOnUse"><stop offset="0" stop-color="#efff9d"/><stop offset="1" stop-color="#7cf6fc" stop-opacity="0.54"/></linearGradient><linearGradient id="未命名的渐变_2" x1="2604.3" y1="-569.76" x2="2805.7" y2="-605.28" gradientTransform="matrix(1, 0, 0, -1, -2121, 90)" gradientUnits="userSpaceOnUse"><stop offset="0" stop-color="#2b88d8"/><stop offset="0.19" stop-color="#2b88d8"/><stop offset="0.68" stop-color="#257cc7"/><stop offset="1" stop-color="#257cc7"/></linearGradient><linearGradient id="未命名的渐变_3" x1="2626.34" y1="-636.88" x2="3059.06" y2="-713.18" gradientTransform="matrix(1, 0, 0, -1, -2121, 90)" gradientUnits="userSpaceOnUse"><stop offset="0" stop-color="#2b88d8"/><stop offset="0.68" stop-color="#2b88d8"/><stop offset="1" stop-color="#1f68a6"/></linearGradient><clipPath id="clip-path-2"><rect x="597.16" y="700.03" width="160.57" height="160.57" transform="translate(-166.42 1376.74) rotate(-84.29)" fill="none"/></clipPath></defs><g clip-path="url(#clip-path)"><path d="M626,440.5C626,283.93,752.93,157,909.5,157h0c156.57,0,283.5,126.93,283.5,283.5v174C1193,771.07,1066.07,898,909.5,898h0C752.93,898,626,771.07,626,614.5Z" fill-rule="evenodd" fill="url(#未命名的渐变)"/><path d="M1,400.1A47.1,47.1,0,0,1,48.1,353H517.9A47.1,47.1,0,0,1,565,400.1V686.9A47.1,47.1,0,0,1,517.9,734H48.1A47.1,47.1,0,0,1,1,686.9Z" fill="#00ccb9" fill-rule="evenodd"/><path d="M47.13,353H517.87A47.13,47.13,0,0,1,565,400.13v80.73L289.86,622,0,473.3V400.13A47.13,47.13,0,0,1,47.13,353Z" fill="#00f6df" fill-rule="evenodd"/><rect x="34" y="667" width="29" height="29" fill="#00f6df"/><rect x="69" y="667" width="30" height="29" fill="#00f6df"/><rect x="105" y="667" width="29" height="29" fill="#00f6df"/><rect x="140" y="667" width="29" height="29" fill="#00f6df"/><rect x="175" y="667" width="29" height="29" fill="#00f6df"/><rect x="211" y="667" width="29" height="29" fill="#00f6df"/><path d="M244,46a46,46,0,1,1,46,46A46,46,0,0,1,244,46Z" fill="#fff" fill-opacity="0.47" fill-rule="evenodd"/><path d="M362,46a46,46,0,1,1,46,46A46,46,0,0,1,362,46Z" fill="#fff" fill-opacity="0.47" fill-rule="evenodd"/><path d="M480,46a46,46,0,1,1,46,46A46,46,0,0,1,480,46Z" fill="#fff" fill-opacity="0.47" fill-rule="evenodd"/><path d="M244,165a46,46,0,1,1,46,46A46,46,0,0,1,244,165Z" fill="#fff" fill-opacity="0.47" fill-rule="evenodd"/><path d="M362,165a46,46,0,1,1,46,46A46,46,0,0,1,362,165Z" fill="#fff" fill-opacity="0.47" fill-rule="evenodd"/><path d="M480,165a46,46,0,1,1,46,46A46,46,0,0,1,480,165Z" fill="#fff" fill-opacity="0.47" fill-rule="evenodd"/><path d="M244,283a46,46,0,1,1,46,46A46,46,0,0,1,244,283Z" fill="#fff" fill-opacity="0.47" fill-rule="evenodd"/><path d="M362,283a46,46,0,1,1,46,46A46,46,0,0,1,362,283Z" fill="#fff" fill-opacity="0.47" fill-rule="evenodd"/><path d="M480,283a46,46,0,1,1,46,46A46,46,0,0,1,480,283Z" fill="#fff" fill-opacity="0.47" fill-rule="evenodd"/><path d="M362,402a46,46,0,1,1,46,46A46,46,0,0,1,362,402Z" fill="#fff" fill-opacity="0.47" fill-rule="evenodd"/><path d="M439,566.61q-12.45,0-20.07,6.13A33.78,33.78,0,0,0,408,588.44a61,61,0,0,0-3.31,20q0,16.59,6.36,23.87t17.53,7.27q14.23,0,20.46-10.72t7.25-27.83l1.52-31.91a58.83,58.83,0,0,0-8.39-1.78A69.82,69.82,0,0,0,439,566.61Zm2.8-65.61q26.43,0,47,11a80.62,80.62,0,0,1,32.4,31.4Q533,563.8,533,592.14a99,99,0,0,1-2.67,23,68.51,68.51,0,0,1-8.26,20.29A47.09,47.09,0,0,1,508.35,650,33.7,33.7,0,0,1,489,655.45q-11.68,0-18.42-6.76a28.53,28.53,0,0,1-8.26-15.45h-1.27a41.62,41.62,0,0,1-13.47,15.83q-8.89,6.38-22.37,6.38-19.58,0-30-13T384.83,608q0-16.61,6.61-29.62a49.91,49.91,0,0,1,18.68-20.42q12.08-7.41,28.59-7.4a126.24,126.24,0,0,1,22,1.91,99.22,99.22,0,0,1,16.9,4.21l-2.54,51.83q-.26,4.59-.25,6.51v2.68q0,13.53,4.7,17.74a16,16,0,0,0,11.06,4.21,16.8,16.8,0,0,0,13.34-6.51q5.46-6.51,8.39-17.23a91.22,91.22,0,0,0,2.92-24q0-23.48-9.53-40.08a63.57,63.57,0,0,0-26.18-25.27q-16.65-8.68-37.74-8.68-29,0-48.92,12a77.47,77.47,0,0,0-30.25,33.06Q352.3,584,352.3,611q0,37.79,19.82,58t57.19,20.17a124.3,124.3,0,0,0,29.61-3.45,220.81,220.81,0,0,0,25-7.53v17.36a137.85,137.85,0,0,1-24.53,7.53A142.68,142.68,0,0,1,429.31,706q-30,0-51.34-11.23a76.88,76.88,0,0,1-32.66-32.3Q334,641.41,334,611.8a128.17,128.17,0,0,1,7.37-44,101.56,101.56,0,0,1,21.35-35.23,96.56,96.56,0,0,1,33.93-23.23Q416.6,501,441.76,501Z" fill-opacity="0.11" fill-rule="evenodd"/><path d="M507.21,787.3l2.29,30.93c-25-82.39-76.72-94.62-106.91-149.23L353,675.87c32.87,72.57,113.6,242,127,246.91,17.86,12,73.85-1.14,84.55-46.4L576,769Z" fill="#e0bb95" fill-rule="evenodd"/><path d="M978.08,791.32,989,943.48,906.71,946,879,780Z" fill="#e0bb95" fill-rule="evenodd"/><path d="M665,565c-115.56,4.17-158.61,163.56-165,222.81L599.17,807Z" fill-rule="evenodd" fill="url(#未命名的渐变_2)"/><path d="M536,951c10.17-132.12,26.75-310.13,81.08-366.35,89.17-60.39,240.75-25.19,288.4,29,28.2,181-45.4,209.1-25.88,334.94Z" fill-rule="evenodd" fill="url(#未命名的渐变_3)"/><path d="M983,794.46C963.22,716,959.32,564.85,775.72,554L759,698.44c46-5.56,81.07-12.8,127.88,118.56Z" fill="#2b88d8" fill-rule="evenodd"/><path d="M686.33,535.34,683,569.65c27.78,46.31,79.72,33.2,98.33,3.35L788,496Z" fill="#c49a6c" fill-rule="evenodd"/><path d="M606.4,293c13.66,28.61,44.89,3.06,73.6,9.17L669.13,348C649.33,346.89,601.11,352.44,606.4,293Z" fill="#3a312e" fill-rule="evenodd"/><path d="M670.27,315c-26.51,39.19-102.41,215.25,38.51,233.44C771.29,554.32,797,512.33,815.94,488c26.79,15.12,43.54-5.88,47.72-27.71,3.63-21.27-22.88-72.77-34.32-109.16Z" fill="#e0bb95" fill-rule="evenodd"/><path d="M665.68,213c5.29,94.62,227.92-1.67,201.45,150.73,14.21,23.44,14.21,46-7.52,72.85l-12.54-11.73L826.17,455c-15.32-11.17-24-19-25.07-46.06-15.05-4.18-28.43-3.35-38.46-22.6l27.59-15.91C706.08,361.21,572.61,303.44,665.68,213Z" fill="#3a312e" fill-rule="evenodd"/><path d="M669.3,400.79A8.91,8.91,0,0,1,679.9,394h0a8.91,8.91,0,0,1,6.82,10.6l-2.08,9.6A8.91,8.91,0,0,1,674,421h0a8.91,8.91,0,0,1-6.82-10.6Z" fill="#404040" fill-rule="evenodd"/><path d="M753.77,420.45a8.91,8.91,0,0,1,10.59-6.83h0a8.93,8.93,0,0,1,6.83,10.6l-2.08,9.6a8.91,8.91,0,0,1-10.6,6.82h0a8.9,8.9,0,0,1-6.82-10.59Z" fill="#404040" fill-rule="evenodd"/><path d="M689.76,488.26c-4,3.77,8.68,17.74,23.1,17.74s26.55-16.12,20.58-20.56c-3.34-2.49-7.84,6.35-21,6.85C701.41,492.72,693.84,484.47,689.76,488.26Z" fill="#4c1d1c" fill-rule="evenodd"/><path d="M703,413l-31.5,29.11L708,467l-26.46-2.53L666,440.42Z" fill="#c49a6c" fill-rule="evenodd"/><g clip-path="url(#clip-path-2)"><g clip-path="url(#clip-path-2)"><g clip-path="url(#clip-path-2)"><path d="M619.23,833a3.61,3.61,0,0,1-4.25.42,3.79,3.79,0,0,1-2-3.73,3.86,3.86,0,0,1,2.68-3.26,3.59,3.59,0,0,1,4.08,1.24A3.75,3.75,0,0,1,619.23,833Zm128.46-97.92L732.86,747.2l-10.36-3.9-1.62-10.75,14.83-12.13A22.9,22.9,0,0,0,703,744.72l-93.36,76.39a11.59,11.59,0,0,0-4.28,10.83,11.3,11.3,0,0,0,7.34,9,11.68,11.68,0,0,0,11.46-2l93.37-76.38a22.81,22.81,0,0,0,30.14-27.41Z" fill="#9aecfc"/><path d="M737.14,833.86,698.5,786.62l-19,15.58L716.9,848l1.35,1.65.18-.15a12.19,12.19,0,0,0,15.78.23,12.87,12.87,0,0,0,2.93-15.84Z" fill="#9aecfc"/><path d="M639.86,729.16l.19-.15-3.53-8.43-13.16-12.91L617,712.91l10,15.46,7.56,5.13.18-.15,28.61,35,5.12-4.2Z" fill="#9aecfc"/></g></g></g><path d="M404.64,692.44c-5.31-21.18,6.31-35.65-5.52-44-22.76-16.1-48.74-23-64.52-27.14-7.82,2-.16,10.41-5.16,16.55-25.93-3.13-52.19,2.2-77.8-9.38-5.64-2.55-21.46,9.44,4,20.1C304.5,666.33,355,677.82,404.64,692.44Z" fill="#e0bb95" fill-rule="evenodd"/><path d="M803.59,449.65c5.89-19.43,21.06-32,33.88-28.16S855.9,444.28,850,463.72s-21.06,32-33.88,28.16S797.7,469.09,803.59,449.65Z" fill="#404040" fill-rule="evenodd"/><path d="M718,527.5A13,13,0,1,1,731,541,13.25,13.25,0,0,1,718,527.5Z" fill="#404040" fill-rule="evenodd"/><path d="M823.5,466.5c-1.73,54.66-37.27,83.71-91,61.5" fill="none" stroke="#404040" stroke-miterlimit="8" stroke-width="4.58"/></g></svg>